<svg width="24" height="24" viewBox="0 0 24 24" fill="none" xmlns="http://www.w3.org/2000/svg">
<path d="M12.0002 19.3499L12.0002 19.3394M12.0002 11.9999L12.0002 11.9894M12.0002 4.6499L12.0002 4.6394M12.0002 18.2999C12.5801 18.2999 13.0502 18.77 13.0502 19.3499C13.0502 19.9298 12.5801 20.3999 12.0002 20.3999C11.4203 20.3999 10.9502 19.9298 10.9502 19.3499C10.9502 18.77 11.4203 18.2999 12.0002 18.2999ZM12.0002 10.9499C12.5801 10.9499 13.0502 11.42 13.0502 11.9999C13.0502 12.5798 12.5801 13.0499 12.0002 13.0499C11.4203 13.0499 10.9502 12.5798 10.9502 11.9999C10.9502 11.42 11.4203 10.9499 12.0002 10.9499ZM12.0002 3.5999C12.5801 3.5999 13.0502 4.07 13.0502 4.6499C13.0502 5.2298 12.5801 5.6999 12.0002 5.6999C11.4203 5.6999 10.9502 5.2298 10.9502 4.6499C10.9502 4.07 11.4203 3.5999 12.0002 3.5999Z" stroke="#2B2E38" stroke-width="1.67" stroke-linecap="round" stroke-linejoin="round"/>
</svg>
