<svg width="25" height="24" viewBox="0 0 25 24" fill="none" xmlns="http://www.w3.org/2000/svg">
<path d="M23.366 14.25C23.3674 13.4924 23.138 12.7524 22.7085 12.1283C22.279 11.5043 21.6696 11.0258 20.9615 10.7565C20.7101 9.71066 20.1423 8.7678 19.3354 8.05649C18.5286 7.34518 17.522 6.90005 16.4529 6.78179C15.3838 6.66353 14.3042 6.8779 13.3614 7.39566C12.4186 7.91342 11.6584 8.70938 11.1845 9.675C10.5067 7.5932 10.5412 5.34497 11.2828 3.285C11.3264 3.17191 11.3425 3.05001 11.3295 2.92947C11.3166 2.80893 11.2751 2.69322 11.2084 2.59197C11.1417 2.49072 11.0518 2.40687 10.9461 2.34739C10.8405 2.28791 10.7222 2.25452 10.601 2.25C10.557 2.25007 10.5131 2.25409 10.4698 2.262C8.08222 2.68689 5.93627 3.98001 4.44508 5.8924C2.95389 7.80478 2.22288 10.2012 2.39281 12.6203C2.56273 15.0394 3.62158 17.3101 5.36547 18.9952C7.10937 20.6804 9.41502 21.6608 11.8385 21.7477C11.9615 21.7523 12.0845 21.7477 12.206 21.7477C13.6952 21.747 15.1645 21.4062 16.5019 20.7514C17.8394 20.0966 19.0096 19.145 19.9235 17.9692C20.8592 17.894 21.7324 17.4699 22.3701 16.781C23.0077 16.0921 23.3632 15.1887 23.366 14.25ZM11.8933 20.2485C9.9501 20.1791 8.09259 19.4314 6.64323 18.1352C5.19387 16.8391 4.24417 15.0763 3.95901 13.1529C3.67386 11.2295 4.07125 9.26702 5.0822 7.60609C6.09315 5.94517 7.65382 4.69071 9.49326 4.0605C8.95532 6.41022 9.17696 8.87004 10.1263 11.0858C9.43648 11.5164 8.90582 12.1601 8.61463 12.9194C8.32343 13.6787 8.28756 14.5121 8.51245 15.2936C8.73734 16.0751 9.21074 16.762 9.86096 17.2503C10.5112 17.7387 11.3028 18.0018 12.116 18H17.8738C16.337 19.4391 14.3121 20.2425 12.2068 20.2485C12.1033 20.2485 11.9983 20.2515 11.8933 20.2485ZM19.616 16.5H12.116C11.5649 16.5016 11.0324 16.3004 10.62 15.9348C10.2075 15.5691 9.94399 15.0646 9.87951 14.5172C9.81502 13.9699 9.9541 13.4179 10.2703 12.9664C10.5864 12.515 11.0576 12.1955 11.594 12.069L12.0875 11.9513L12.1618 11.4488C12.2924 10.5596 12.7384 9.74709 13.4185 9.15961C14.0986 8.57213 14.9673 8.24887 15.866 8.24887C16.7647 8.24887 17.6334 8.57213 18.3135 9.15961C18.9936 9.74709 19.4396 10.5596 19.5703 11.4488L19.6445 11.9513L20.138 12.069C20.6744 12.1955 21.1456 12.515 21.4618 12.9664C21.7779 13.4179 21.917 13.9699 21.8525 14.5172C21.788 15.0646 21.5245 15.5691 21.1121 15.9348C20.6996 16.3004 20.1672 16.5016 19.616 16.5Z" fill="#84818A"/>
</svg>
