<svg width="25" height="24" viewBox="0 0 25 24" fill="none" xmlns="http://www.w3.org/2000/svg">
<path d="M23.3661 14.25C23.3675 13.4924 23.1381 12.7524 22.7086 12.1283C22.2791 11.5043 21.6697 11.0258 20.9616 10.7565C20.7103 9.71066 20.1424 8.7678 19.3356 8.05649C18.5287 7.34518 17.5221 6.90005 16.453 6.78179C15.3839 6.66353 14.3043 6.8779 13.3615 7.39566C12.4187 7.91342 11.6585 8.70938 11.1846 9.675C10.5068 7.5932 10.5414 5.34497 11.2829 3.285C11.3266 3.17191 11.3426 3.05001 11.3297 2.92947C11.3167 2.80893 11.2752 2.69322 11.2085 2.59197C11.1418 2.49072 11.0519 2.40687 10.9462 2.34739C10.8406 2.28791 10.7223 2.25452 10.6011 2.25C10.5571 2.25007 10.5132 2.25409 10.4699 2.262C8.08234 2.68689 5.9364 3.98001 4.4452 5.8924C2.95401 7.80478 2.22301 10.2012 2.39293 12.6203C2.56286 15.0394 3.6217 17.3101 5.36559 18.9952C7.10949 20.6804 9.41514 21.6608 11.8386 21.7477C11.9616 21.7523 12.0846 21.7477 12.2061 21.7477C13.6953 21.747 15.1646 21.4062 16.502 20.7514C17.8395 20.0966 19.0098 19.145 19.9236 17.9692C20.8593 17.894 21.7326 17.4699 22.3702 16.781C23.0078 16.0921 23.3633 15.1887 23.3661 14.25ZM11.8934 20.2485C9.95022 20.1791 8.09271 19.4314 6.64335 18.1352C5.19399 16.8391 4.24429 15.0763 3.95913 13.1529C3.67398 11.2295 4.07137 9.26702 5.08232 7.60609C6.09327 5.94517 7.65394 4.69071 9.49338 4.0605C8.95544 6.41022 9.17708 8.87004 10.1264 11.0858C9.43661 11.5164 8.90594 12.1601 8.61475 12.9194C8.32355 13.6787 8.28768 14.5121 8.51257 15.2936C8.73746 16.0751 9.21086 16.762 9.86108 17.2503C10.5113 17.7387 11.3029 18.0018 12.1161 18H17.8739C16.3372 19.4391 14.3122 20.2425 12.2069 20.2485C12.1034 20.2485 11.9984 20.2515 11.8934 20.2485ZM19.6161 16.5H12.1161C11.565 16.5016 11.0325 16.3004 10.6201 15.9348C10.2077 15.5691 9.94411 15.0646 9.87963 14.5172C9.81515 13.9699 9.95423 13.4179 10.2704 12.9664C10.5865 12.515 11.0577 12.1955 11.5941 12.069L12.0876 11.9513L12.1619 11.4488C12.2925 10.5596 12.7386 9.74709 13.4186 9.15961C14.0987 8.57213 14.9674 8.24887 15.8661 8.24887C16.7648 8.24887 17.6335 8.57213 18.3136 9.15961C18.9937 9.74709 19.4398 10.5596 19.5704 11.4488L19.6446 11.9513L20.1381 12.069C20.6746 12.1955 21.1457 12.515 21.4619 12.9664C21.778 13.4179 21.9171 13.9699 21.8526 14.5172C21.7881 15.0646 21.5246 15.5691 21.1122 15.9348C20.6998 16.3004 20.1673 16.5016 19.6161 16.5Z" fill="#FFA043"/>
</svg>
