<svg width="34" height="34" viewBox="0 0 34 34" fill="none" xmlns="http://www.w3.org/2000/svg">
<path d="M17 34C26.3888 34 34 26.3888 34 17C34 7.61116 26.3888 0 17 0C7.61116 0 0 7.61116 0 17C0 26.3888 7.61116 34 17 34Z" fill="white"/>
<path d="M23.7305 25.3069L20.1659 19.9022H25.2803V17.8701H8.5V19.9163H13.6144L10.0498 25.3069H12.6986L16.8831 18.9567L21.0676 25.3069H23.7305Z" fill="#190F3E"/>
<rect x="9.27295" y="13.1365" width="2.31818" height="3.86364" fill="#190F3E"/>
<rect x="12.3638" y="10.8181" width="2.31818" height="6.18182" fill="#190F3E"/>
<rect x="15.4546" y="7.72729" width="2.31818" height="9.27273" fill="#190F3E"/>
<rect x="18.5454" y="10.8181" width="2.31818" height="6.18182" fill="#190F3E"/>
<rect x="21.6362" y="13.1365" width="2.31818" height="3.86364" fill="#190F3E"/>
</svg>
