<svg width="14" height="14" viewBox="0 0 14 14" fill="none" xmlns="http://www.w3.org/2000/svg">
<circle cx="7" cy="7" r="6.5" fill="#20C9AC" stroke="white"/>
<path d="M9.2275 4.72749C9.33315 4.62691 9.47374 4.5713 9.61961 4.5724C9.76548 4.57351 9.90521 4.63124 10.0093 4.73341C10.1134 4.83558 10.1738 4.9742 10.1777 5.12002C10.1815 5.26584 10.1286 5.40746 10.03 5.51499L7.0375 9.25749C6.98604 9.31291 6.92393 9.35739 6.8549 9.38826C6.78586 9.41914 6.7113 9.43577 6.63568 9.43717C6.56007 9.43857 6.48495 9.42471 6.41481 9.39641C6.34468 9.36812 6.28097 9.32597 6.2275 9.27249L4.243 7.28799C4.18773 7.23649 4.1434 7.17439 4.11266 7.10539C4.08192 7.03639 4.06538 6.96191 4.06405 6.88638C4.06272 6.81085 4.07661 6.73583 4.1049 6.66579C4.13319 6.59575 4.1753 6.53212 4.22872 6.47871C4.28213 6.4253 4.34576 6.38319 4.4158 6.3549C4.48584 6.32661 4.56086 6.31271 4.63639 6.31405C4.71192 6.31538 4.7864 6.33191 4.8554 6.36265C4.9244 6.3934 4.9865 6.43772 5.038 6.49299L6.6085 8.06274L9.21325 4.74399C9.21794 4.73822 9.22294 4.73271 9.22825 4.72749H9.2275Z" fill="white"/>
</svg>
