<svg width="29" height="29" viewBox="0 0 29 29" fill="none" xmlns="http://www.w3.org/2000/svg">
<path fill-rule="evenodd" clip-rule="evenodd" d="M11.7966 0.983051C11.7966 0.440127 12.2367 0 12.7797 0H15.7288C16.2717 0 16.7119 0.440127 16.7119 0.983051V7.37288C16.7119 7.45377 16.7021 7.53237 16.6837 7.60757C15.9864 7.14849 15.1515 6.88136 14.2542 6.88136C13.357 6.88136 12.5221 7.14849 11.8248 7.60757C11.8064 7.53237 11.7966 7.45377 11.7966 7.37288V0.983051ZM9.83051 11.3051H0.983051C0.440127 11.3051 0 11.7452 0 12.2881V15.2373C0 15.7802 0.440127 16.2203 0.983051 16.2203H8.80906L3.06042 21.969C2.67652 22.3529 2.67652 22.9753 3.06042 23.3592L5.14579 25.4446C5.52969 25.8285 6.15213 25.8285 6.53603 25.4446L11.7966 20.184V27.0339C11.7966 27.5768 12.2367 28.0169 12.7797 28.0169H15.7288C16.2717 28.0169 16.7119 27.5768 16.7119 27.0339V19.0917L22.8761 25.256C23.26 25.6399 23.8825 25.6399 24.2664 25.256L26.3517 23.1706C26.7357 22.7867 26.7357 22.1643 26.3517 21.7804L20.7917 16.2203H28.0169C28.5599 16.2203 29 15.7802 29 15.2373V12.2881C29 11.7452 28.5599 11.3051 28.0169 11.3051H18.678C18.678 13.7482 16.6974 15.7288 14.2542 15.7288C11.8111 15.7288 9.83051 13.7482 9.83051 11.3051Z" fill="#FFA043"/>
<path fill-rule="evenodd" clip-rule="evenodd" d="M12.7797 0C12.2368 0 11.7966 0.440127 11.7966 0.983051V7.37288C11.7966 7.45371 11.8064 7.53226 11.8248 7.60742C12.522 7.14843 13.3568 6.88136 14.254 6.88136C15.1514 6.88136 15.9863 7.14855 16.6837 7.60772C16.7021 7.53247 16.7119 7.45382 16.7119 7.37288V0.983051C16.7119 0.440127 16.2718 0 15.7288 0H12.7797Z" fill="#5542F6"/>
<circle cx="14.2542" cy="11.3051" r="2.94915" fill="#5542F6"/>
</svg>
