<svg width="163" height="30" viewBox="0 0 163 30" fill="none" xmlns="http://www.w3.org/2000/svg">
<rect width="160" height="30" fill="#FAFAFA"/>
<rect width="163" height="30" fill="#FAFAFA"/>
<path d="M34.634 20.21C35.3293 20.21 35.9687 20.0933 36.552 19.86C37.14 19.6267 37.6113 19.2813 37.966 18.824C38.3207 18.3667 38.498 17.7997 38.498 17.123C38.498 16.633 38.407 16.227 38.225 15.905C38.043 15.5783 37.812 15.317 37.532 15.121C37.2567 14.925 36.9697 14.7733 36.671 14.666C36.377 14.554 36.1133 14.4653 35.88 14.4L34.018 13.875C33.78 13.8097 33.5397 13.728 33.297 13.63C33.059 13.5273 32.8583 13.3897 32.695 13.217C32.5317 13.0443 32.45 12.818 32.45 12.538C32.45 12.2487 32.541 11.9967 32.723 11.782C32.9097 11.5627 33.157 11.3923 33.465 11.271C33.7777 11.1497 34.1207 11.0937 34.494 11.103C35.0727 11.1077 35.5837 11.2733 36.027 11.6C36.475 11.922 36.7527 12.3677 36.86 12.937L38.428 12.671C38.2227 11.7423 37.7747 11.0213 37.084 10.508C36.3933 9.99 35.537 9.72633 34.515 9.717C33.8383 9.71233 33.227 9.822 32.681 10.046C32.135 10.27 31.701 10.5967 31.379 11.026C31.0617 11.4553 30.903 11.9827 30.903 12.608C30.903 13.1493 31.0173 13.588 31.246 13.924C31.4747 14.26 31.7593 14.5213 32.1 14.708C32.4453 14.8947 32.786 15.037 33.122 15.135L35.705 15.898C36.0783 16.01 36.3817 16.1687 36.615 16.374C36.853 16.5747 36.972 16.857 36.972 17.221C36.972 17.557 36.867 17.8463 36.657 18.089C36.4517 18.327 36.1787 18.5113 35.838 18.642C35.4973 18.768 35.124 18.831 34.718 18.831C34.0647 18.831 33.493 18.6607 33.003 18.32C32.513 17.9793 32.191 17.4987 32.037 16.878L30.511 17.109C30.623 17.7483 30.8657 18.3013 31.239 18.768C31.6123 19.23 32.0907 19.587 32.674 19.839C33.2573 20.0863 33.9107 20.21 34.634 20.21ZM42.5028 20H43.9658V11.299H47.3188V9.92H39.1498V11.299H42.5028V20ZM47.599 20H49.398L51.939 16.143L54.473 20H56.265L52.835 14.897L56.181 9.92H54.382L51.939 13.658L49.482 9.92H47.69L51.036 14.897L47.599 20ZM60.1831 20H61.5621V13.098L64.8241 20H65.4891L68.7441 13.098V19.993H70.1301V9.92H68.7931L65.1601 17.501L61.5061 9.92H60.1831V20ZM72.2313 11.201H73.6943V9.78H72.2313V11.201ZM72.2313 20H73.6943V12.44H72.2313V20ZM75.7894 20H77.2734V16.066C77.2734 15.4687 77.3597 14.9927 77.5324 14.638C77.7097 14.2787 77.9431 14.0197 78.2324 13.861C78.5217 13.7023 78.8414 13.623 79.1914 13.623C79.5927 13.623 79.9194 13.7047 80.1714 13.868C80.4234 14.0313 80.6171 14.246 80.7524 14.512C80.8877 14.778 80.9787 15.0673 81.0254 15.38C81.0767 15.688 81.1024 15.989 81.1024 16.283V20H82.5864V15.8C82.5864 15.5667 82.5654 15.296 82.5234 14.988C82.4814 14.68 82.4021 14.365 82.2854 14.043C82.1687 13.721 81.9984 13.4247 81.7744 13.154C81.5551 12.8787 81.2681 12.657 80.9134 12.489C80.5587 12.321 80.1201 12.237 79.5974 12.237C79.0514 12.237 78.5661 12.335 78.1414 12.531C77.7214 12.727 77.3737 12.9977 77.0984 13.343V12.44H75.7894V20ZM84.5497 11.201H86.0127V9.78H84.5497V11.201ZM84.5497 20H86.0127V12.44H84.5497V20ZM88.1078 20H89.5918V16.066C89.5918 15.4687 89.6781 14.9927 89.8508 14.638C90.0281 14.2787 90.2614 14.0197 90.5508 13.861C90.8401 13.7023 91.1598 13.623 91.5098 13.623C91.9111 13.623 92.2378 13.7047 92.4898 13.868C92.7418 14.0313 92.9354 14.246 93.0708 14.512C93.2061 14.778 93.2971 15.0673 93.3438 15.38C93.3951 15.688 93.4208 15.989 93.4208 16.283V20H94.9048V15.8C94.9048 15.5667 94.8838 15.296 94.8418 14.988C94.7998 14.68 94.7204 14.365 94.6038 14.043C94.4871 13.721 94.3168 13.4247 94.0928 13.154C93.8734 12.8787 93.5864 12.657 93.2318 12.489C92.8771 12.321 92.4384 12.237 91.9158 12.237C91.3698 12.237 90.8844 12.335 90.4598 12.531C90.0398 12.727 89.6921 12.9977 89.4168 13.343V12.44H88.1078V20ZM99.731 20.21C100.16 20.21 100.548 20.1447 100.893 20.014C101.238 19.888 101.544 19.7083 101.81 19.475V20.189C101.819 20.8377 101.651 21.3277 101.306 21.659C100.965 21.995 100.482 22.163 99.857 22.163C99.521 22.163 99.2014 22.0883 98.898 21.939C98.5947 21.7897 98.3614 21.554 98.198 21.232L96.847 21.918C97.155 22.4547 97.5797 22.863 98.121 23.143C98.6624 23.4277 99.2364 23.57 99.843 23.57C100.725 23.57 101.462 23.3857 102.055 23.017C102.648 22.653 103.023 22.0883 103.182 21.323C103.219 21.1457 103.245 20.9637 103.259 20.777C103.273 20.595 103.28 20.4037 103.28 20.203V12.44H101.985V13.119C101.714 12.839 101.392 12.622 101.019 12.468C100.646 12.3093 100.226 12.23 99.759 12.23C99.0497 12.23 98.436 12.405 97.918 12.755C97.4047 13.1003 97.008 13.574 96.728 14.176C96.448 14.7733 96.308 15.4523 96.308 16.213C96.308 16.969 96.4457 17.648 96.721 18.25C97.001 18.852 97.3977 19.3303 97.911 19.685C98.4244 20.035 99.031 20.21 99.731 20.21ZM99.934 18.887C99.4674 18.887 99.08 18.768 98.772 18.53C98.464 18.292 98.2354 17.9723 98.086 17.571C97.9367 17.165 97.862 16.7123 97.862 16.213C97.862 15.7183 97.9367 15.2703 98.086 14.869C98.24 14.4677 98.4734 14.148 98.786 13.91C99.0987 13.672 99.4977 13.553 99.983 13.553C100.674 13.553 101.18 13.8003 101.502 14.295C101.824 14.7897 101.985 15.429 101.985 16.213C101.985 16.997 101.824 17.6387 101.502 18.138C101.18 18.6373 100.657 18.887 99.934 18.887ZM108.048 20H109.427V13.098L112.689 20H113.354L116.609 13.098V19.993H117.995V9.92H116.658L113.025 17.501L109.371 9.92H108.048V20ZM123.24 20.21C123.991 20.21 124.644 20.042 125.2 19.706C125.755 19.3653 126.184 18.8963 126.488 18.299C126.796 17.697 126.95 17.0017 126.95 16.213C126.95 15.4337 126.798 14.7453 126.495 14.148C126.191 13.546 125.762 13.077 125.207 12.741C124.651 12.4003 123.996 12.23 123.24 12.23C122.498 12.23 121.849 12.398 121.294 12.734C120.738 13.07 120.307 13.5367 119.999 14.134C119.691 14.7313 119.537 15.4243 119.537 16.213C119.537 16.9923 119.688 17.683 119.992 18.285C120.295 18.887 120.722 19.3583 121.273 19.699C121.828 20.0397 122.484 20.21 123.24 20.21ZM123.24 18.831C122.535 18.831 122.001 18.5953 121.637 18.124C121.273 17.648 121.091 17.011 121.091 16.213C121.091 15.443 121.266 14.8177 121.616 14.337C121.966 13.8517 122.507 13.609 123.24 13.609C123.954 13.609 124.49 13.8447 124.85 14.316C125.214 14.7873 125.396 15.4197 125.396 16.213C125.396 16.9877 125.216 17.6177 124.857 18.103C124.502 18.5883 123.963 18.831 123.24 18.831ZM128.481 20H129.965V16.066C129.965 15.4687 130.051 14.9927 130.224 14.638C130.401 14.2787 130.634 14.0197 130.924 13.861C131.213 13.7023 131.533 13.623 131.883 13.623C132.284 13.623 132.611 13.7047 132.863 13.868C133.115 14.0313 133.308 14.246 133.444 14.512C133.579 14.778 133.67 15.0673 133.717 15.38C133.768 15.688 133.794 15.989 133.794 16.283V20H135.278V15.8C135.278 15.5667 135.257 15.296 135.215 14.988C135.173 14.68 135.093 14.365 134.977 14.043C134.86 13.721 134.69 13.4247 134.466 13.154C134.246 12.8787 133.959 12.657 133.605 12.489C133.25 12.321 132.811 12.237 132.289 12.237C131.743 12.237 131.257 12.335 130.833 12.531C130.413 12.727 130.065 12.9977 129.79 13.343V12.44H128.481V20ZM137.241 11.201H138.704V9.78H137.241V11.201ZM137.241 20H138.704V12.44H137.241V20ZM145.132 20V18.761C144.638 18.8357 144.206 18.852 143.837 18.81C143.473 18.7633 143.207 18.5977 143.039 18.313C142.951 18.159 142.902 17.97 142.892 17.746C142.888 17.522 142.885 17.2583 142.885 16.955V13.616H145.132V12.44H142.885V10.34H141.415V12.44H139.966V13.616H141.415V17.025C141.415 17.4357 141.42 17.8043 141.429 18.131C141.443 18.453 141.532 18.7703 141.695 19.083C141.882 19.433 142.155 19.6897 142.514 19.853C142.874 20.0163 143.282 20.105 143.739 20.119C144.197 20.133 144.661 20.0933 145.132 20ZM149.654 20.21C150.405 20.21 151.058 20.042 151.614 19.706C152.169 19.3653 152.598 18.8963 152.902 18.299C153.21 17.697 153.364 17.0017 153.364 16.213C153.364 15.4337 153.212 14.7453 152.909 14.148C152.605 13.546 152.176 13.077 151.621 12.741C151.065 12.4003 150.41 12.23 149.654 12.23C148.912 12.23 148.263 12.398 147.708 12.734C147.152 13.07 146.721 13.5367 146.413 14.134C146.105 14.7313 145.951 15.4243 145.951 16.213C145.951 16.9923 146.102 17.683 146.406 18.285C146.709 18.887 147.136 19.3583 147.687 19.699C148.242 20.0397 148.898 20.21 149.654 20.21ZM149.654 18.831C148.949 18.831 148.415 18.5953 148.051 18.124C147.687 17.648 147.505 17.011 147.505 16.213C147.505 15.443 147.68 14.8177 148.03 14.337C148.38 13.8517 148.921 13.609 149.654 13.609C150.368 13.609 150.904 13.8447 151.264 14.316C151.628 14.7873 151.81 15.4197 151.81 16.213C151.81 16.9877 151.63 17.6177 151.271 18.103C150.916 18.5883 150.377 18.831 149.654 18.831ZM154.902 20H156.379V16.185C156.379 15.7417 156.449 15.331 156.589 14.953C156.729 14.575 156.976 14.2717 157.331 14.043C157.583 13.8797 157.861 13.784 158.164 13.756C158.467 13.728 158.74 13.7467 158.983 13.812V12.44C158.642 12.3747 158.281 12.377 157.898 12.447C157.52 12.517 157.189 12.657 156.904 12.867C156.624 13.0537 156.391 13.3127 156.204 13.644V12.44H154.902V20Z" fill="black"/>
<path fill-rule="evenodd" clip-rule="evenodd" d="M10.4605 2.08011C11.846 1.30663 13.5191 1.30663 14.9046 2.08011L22.9369 6.56423C24.4334 7.39972 25.3651 9.00825 25.3651 10.7568V19.2432C25.3651 20.9918 24.4334 22.6003 22.9369 23.4358L14.9046 27.9199C13.5191 28.6934 11.846 28.6934 10.4605 27.9199L2.42822 23.4358C0.931626 22.6003 0 20.9918 0 19.2432L0 10.7568C0 9.00825 0.931624 7.39972 2.42822 6.56423L10.4605 2.08011Z" fill="#2E2C34"/>
</svg>
