<svg width="164" height="30" viewBox="0 0 164 30" fill="none" xmlns="http://www.w3.org/2000/svg">
<path d="M39.634 20.21C40.3293 20.21 40.9687 20.0933 41.552 19.86C42.14 19.6267 42.6113 19.2813 42.966 18.824C43.3207 18.3667 43.498 17.7997 43.498 17.123C43.498 16.633 43.407 16.227 43.225 15.905C43.043 15.5783 42.812 15.317 42.532 15.121C42.2567 14.925 41.9697 14.7733 41.671 14.666C41.377 14.554 41.1133 14.4653 40.88 14.4L39.018 13.875C38.78 13.8097 38.5397 13.728 38.297 13.63C38.059 13.5273 37.8583 13.3897 37.695 13.217C37.5317 13.0443 37.45 12.818 37.45 12.538C37.45 12.2487 37.541 11.9967 37.723 11.782C37.9097 11.5627 38.157 11.3923 38.465 11.271C38.7777 11.1497 39.1207 11.0937 39.494 11.103C40.0727 11.1077 40.5837 11.2733 41.027 11.6C41.475 11.922 41.7527 12.3677 41.86 12.937L43.428 12.671C43.2227 11.7423 42.7747 11.0213 42.084 10.508C41.3933 9.99 40.537 9.72633 39.515 9.717C38.8383 9.71233 38.227 9.822 37.681 10.046C37.135 10.27 36.701 10.5967 36.379 11.026C36.0617 11.4553 35.903 11.9827 35.903 12.608C35.903 13.1493 36.0173 13.588 36.246 13.924C36.4747 14.26 36.7593 14.5213 37.1 14.708C37.4453 14.8947 37.786 15.037 38.122 15.135L40.705 15.898C41.0783 16.01 41.3817 16.1687 41.615 16.374C41.853 16.5747 41.972 16.857 41.972 17.221C41.972 17.557 41.867 17.8463 41.657 18.089C41.4517 18.327 41.1787 18.5113 40.838 18.642C40.4973 18.768 40.124 18.831 39.718 18.831C39.0647 18.831 38.493 18.6607 38.003 18.32C37.513 17.9793 37.191 17.4987 37.037 16.878L35.511 17.109C35.623 17.7483 35.8657 18.3013 36.239 18.768C36.6123 19.23 37.0907 19.587 37.674 19.839C38.2573 20.0863 38.9107 20.21 39.634 20.21ZM47.5028 20H48.9658V11.299H52.3188V9.92H44.1498V11.299H47.5028V20ZM52.599 20H54.398L56.939 16.143L59.473 20H61.265L57.835 14.897L61.181 9.92H59.382L56.939 13.658L54.482 9.92H52.69L56.036 14.897L52.599 20ZM65.1831 20H66.5621V13.098L69.8241 20H70.4891L73.7441 13.098V19.993H75.1301V9.92H73.7931L70.1601 17.501L66.5061 9.92H65.1831V20ZM77.2313 11.201H78.6943V9.78H77.2313V11.201ZM77.2313 20H78.6943V12.44H77.2313V20ZM80.7894 20H82.2734V16.066C82.2734 15.4687 82.3597 14.9927 82.5324 14.638C82.7097 14.2787 82.9431 14.0197 83.2324 13.861C83.5217 13.7023 83.8414 13.623 84.1914 13.623C84.5927 13.623 84.9194 13.7047 85.1714 13.868C85.4234 14.0313 85.6171 14.246 85.7524 14.512C85.8877 14.778 85.9787 15.0673 86.0254 15.38C86.0767 15.688 86.1024 15.989 86.1024 16.283V20H87.5864V15.8C87.5864 15.5667 87.5654 15.296 87.5234 14.988C87.4814 14.68 87.4021 14.365 87.2854 14.043C87.1687 13.721 86.9984 13.4247 86.7744 13.154C86.5551 12.8787 86.2681 12.657 85.9134 12.489C85.5587 12.321 85.1201 12.237 84.5974 12.237C84.0514 12.237 83.5661 12.335 83.1414 12.531C82.7214 12.727 82.3737 12.9977 82.0984 13.343V12.44H80.7894V20ZM89.5497 11.201H91.0127V9.78H89.5497V11.201ZM89.5497 20H91.0127V12.44H89.5497V20ZM93.1078 20H94.5918V16.066C94.5918 15.4687 94.6781 14.9927 94.8508 14.638C95.0281 14.2787 95.2614 14.0197 95.5508 13.861C95.8401 13.7023 96.1598 13.623 96.5098 13.623C96.9111 13.623 97.2378 13.7047 97.4898 13.868C97.7418 14.0313 97.9354 14.246 98.0708 14.512C98.2061 14.778 98.2971 15.0673 98.3438 15.38C98.3951 15.688 98.4208 15.989 98.4208 16.283V20H99.9048V15.8C99.9048 15.5667 99.8838 15.296 99.8418 14.988C99.7998 14.68 99.7204 14.365 99.6038 14.043C99.4871 13.721 99.3168 13.4247 99.0928 13.154C98.8734 12.8787 98.5864 12.657 98.2318 12.489C97.8771 12.321 97.4384 12.237 96.9158 12.237C96.3698 12.237 95.8844 12.335 95.4598 12.531C95.0398 12.727 94.6921 12.9977 94.4168 13.343V12.44H93.1078V20ZM104.731 20.21C105.16 20.21 105.548 20.1447 105.893 20.014C106.238 19.888 106.544 19.7083 106.81 19.475V20.189C106.819 20.8377 106.651 21.3277 106.306 21.659C105.965 21.995 105.482 22.163 104.857 22.163C104.521 22.163 104.201 22.0883 103.898 21.939C103.595 21.7897 103.361 21.554 103.198 21.232L101.847 21.918C102.155 22.4547 102.58 22.863 103.121 23.143C103.662 23.4277 104.236 23.57 104.843 23.57C105.725 23.57 106.462 23.3857 107.055 23.017C107.648 22.653 108.023 22.0883 108.182 21.323C108.219 21.1457 108.245 20.9637 108.259 20.777C108.273 20.595 108.28 20.4037 108.28 20.203V12.44H106.985V13.119C106.714 12.839 106.392 12.622 106.019 12.468C105.646 12.3093 105.226 12.23 104.759 12.23C104.05 12.23 103.436 12.405 102.918 12.755C102.405 13.1003 102.008 13.574 101.728 14.176C101.448 14.7733 101.308 15.4523 101.308 16.213C101.308 16.969 101.446 17.648 101.721 18.25C102.001 18.852 102.398 19.3303 102.911 19.685C103.424 20.035 104.031 20.21 104.731 20.21ZM104.934 18.887C104.467 18.887 104.08 18.768 103.772 18.53C103.464 18.292 103.235 17.9723 103.086 17.571C102.937 17.165 102.862 16.7123 102.862 16.213C102.862 15.7183 102.937 15.2703 103.086 14.869C103.24 14.4677 103.473 14.148 103.786 13.91C104.099 13.672 104.498 13.553 104.983 13.553C105.674 13.553 106.18 13.8003 106.502 14.295C106.824 14.7897 106.985 15.429 106.985 16.213C106.985 16.997 106.824 17.6387 106.502 18.138C106.18 18.6373 105.657 18.887 104.934 18.887ZM113.048 20H114.427V13.098L117.689 20H118.354L121.609 13.098V19.993H122.995V9.92H121.658L118.025 17.501L114.371 9.92H113.048V20ZM128.24 20.21C128.991 20.21 129.644 20.042 130.2 19.706C130.755 19.3653 131.184 18.8963 131.488 18.299C131.796 17.697 131.95 17.0017 131.95 16.213C131.95 15.4337 131.798 14.7453 131.495 14.148C131.191 13.546 130.762 13.077 130.207 12.741C129.651 12.4003 128.996 12.23 128.24 12.23C127.498 12.23 126.849 12.398 126.294 12.734C125.738 13.07 125.307 13.5367 124.999 14.134C124.691 14.7313 124.537 15.4243 124.537 16.213C124.537 16.9923 124.688 17.683 124.992 18.285C125.295 18.887 125.722 19.3583 126.273 19.699C126.828 20.0397 127.484 20.21 128.24 20.21ZM128.24 18.831C127.535 18.831 127.001 18.5953 126.637 18.124C126.273 17.648 126.091 17.011 126.091 16.213C126.091 15.443 126.266 14.8177 126.616 14.337C126.966 13.8517 127.507 13.609 128.24 13.609C128.954 13.609 129.49 13.8447 129.85 14.316C130.214 14.7873 130.396 15.4197 130.396 16.213C130.396 16.9877 130.216 17.6177 129.857 18.103C129.502 18.5883 128.963 18.831 128.24 18.831ZM133.481 20H134.965V16.066C134.965 15.4687 135.051 14.9927 135.224 14.638C135.401 14.2787 135.634 14.0197 135.924 13.861C136.213 13.7023 136.533 13.623 136.883 13.623C137.284 13.623 137.611 13.7047 137.863 13.868C138.115 14.0313 138.308 14.246 138.444 14.512C138.579 14.778 138.67 15.0673 138.717 15.38C138.768 15.688 138.794 15.989 138.794 16.283V20H140.278V15.8C140.278 15.5667 140.257 15.296 140.215 14.988C140.173 14.68 140.093 14.365 139.977 14.043C139.86 13.721 139.69 13.4247 139.466 13.154C139.246 12.8787 138.959 12.657 138.605 12.489C138.25 12.321 137.811 12.237 137.289 12.237C136.743 12.237 136.257 12.335 135.833 12.531C135.413 12.727 135.065 12.9977 134.79 13.343V12.44H133.481V20ZM142.241 11.201H143.704V9.78H142.241V11.201ZM142.241 20H143.704V12.44H142.241V20ZM150.132 20V18.761C149.638 18.8357 149.206 18.852 148.837 18.81C148.473 18.7633 148.207 18.5977 148.039 18.313C147.951 18.159 147.902 17.97 147.892 17.746C147.888 17.522 147.885 17.2583 147.885 16.955V13.616H150.132V12.44H147.885V10.34H146.415V12.44H144.966V13.616H146.415V17.025C146.415 17.4357 146.42 17.8043 146.429 18.131C146.443 18.453 146.532 18.7703 146.695 19.083C146.882 19.433 147.155 19.6897 147.514 19.853C147.874 20.0163 148.282 20.105 148.739 20.119C149.197 20.133 149.661 20.0933 150.132 20ZM154.654 20.21C155.405 20.21 156.058 20.042 156.614 19.706C157.169 19.3653 157.598 18.8963 157.902 18.299C158.21 17.697 158.364 17.0017 158.364 16.213C158.364 15.4337 158.212 14.7453 157.909 14.148C157.605 13.546 157.176 13.077 156.621 12.741C156.065 12.4003 155.41 12.23 154.654 12.23C153.912 12.23 153.263 12.398 152.708 12.734C152.152 13.07 151.721 13.5367 151.413 14.134C151.105 14.7313 150.951 15.4243 150.951 16.213C150.951 16.9923 151.102 17.683 151.406 18.285C151.709 18.887 152.136 19.3583 152.687 19.699C153.242 20.0397 153.898 20.21 154.654 20.21ZM154.654 18.831C153.949 18.831 153.415 18.5953 153.051 18.124C152.687 17.648 152.505 17.011 152.505 16.213C152.505 15.443 152.68 14.8177 153.03 14.337C153.38 13.8517 153.921 13.609 154.654 13.609C155.368 13.609 155.904 13.8447 156.264 14.316C156.628 14.7873 156.81 15.4197 156.81 16.213C156.81 16.9877 156.63 17.6177 156.271 18.103C155.916 18.5883 155.377 18.831 154.654 18.831ZM159.902 20H161.379V16.185C161.379 15.7417 161.449 15.331 161.589 14.953C161.729 14.575 161.976 14.2717 162.331 14.043C162.583 13.8797 162.861 13.784 163.164 13.756C163.467 13.728 163.74 13.7467 163.983 13.812V12.44C163.642 12.3747 163.281 12.377 162.898 12.447C162.52 12.517 162.189 12.657 161.904 12.867C161.624 13.0537 161.391 13.3127 161.204 13.644V12.44H159.902V20Z" fill="#FFA043"/>
<path fill-rule="evenodd" clip-rule="evenodd" d="M11.1347 2.08011C12.6095 1.30663 14.3905 1.30663 15.8653 2.08011L24.4153 6.56423C26.0083 7.39972 27 9.00825 27 10.7568V19.2432C27 20.9918 26.0083 22.6003 24.4153 23.4358L15.8653 27.9199C14.3905 28.6934 12.6095 28.6934 11.1347 27.9199L2.58473 23.4358C0.991674 22.6003 0 20.9918 0 19.2432L0 10.7568C0 9.00825 0.991673 7.39972 2.58473 6.56423L11.1347 2.08011Z" fill="#FFA043"/>
</svg>
