
<svg width="105" height="100" viewBox="0 0 105 100" fill="none" xmlns="http://www.w3.org/2000/svg">
<path d="M55.4731 98.8898C81.9056 98.8898 103.333 77.4621 103.333 51.0296C103.333 24.5972 81.9056 3.16943 55.4731 3.16943C29.0407 3.16943 7.61292 24.5972 7.61292 51.0296C7.61292 77.4621 29.0407 98.8898 55.4731 98.8898Z" fill="#F1F3F9" stroke="#D6DCE8" stroke-width="2" stroke-miterlimit="10"/>
<path d="M13.3332 10.7298C16.2051 10.7298 18.5332 8.40172 18.5332 5.52984C18.5332 2.65796 16.2051 0.329834 13.3332 0.329834C10.4613 0.329834 8.13318 2.65796 8.13318 5.52984C8.13318 8.40172 10.4613 10.7298 13.3332 10.7298Z" fill="#EAEEF9"/>
<path d="M73.9815 24.9552H48.4866V15.2798H81.9064C81.9679 15.2798 82.0293 15.2798 82.0907 15.2798C87.3126 15.403 91.5515 19.7169 91.5515 24.9552H80.4935" fill="#F1F3F9"/>
<path d="M73.9815 24.9552H48.4866V15.2798H81.9064C81.9679 15.2798 82.0293 15.2798 82.0907 15.2798C87.3126 15.403 91.5515 19.7169 91.5515 24.9552H80.4935" stroke="#D6DCE8" stroke-width="2" stroke-miterlimit="10"/>
<path d="M82.8279 15.2798C80.862 15.403 79.019 16.2042 77.7289 17.56C77.6061 17.6832 77.4832 17.8065 77.3603 17.9914C76.1931 19.3472 75.333 21.1343 75.333 23.0448V80.6044C75.333 85.9659 71.0327 90.2798 65.688 90.2798H18.7528V22.6134C18.8757 20.6413 19.6129 18.8541 20.903 17.56C22.316 16.1426 24.2204 15.2798 26.3706 15.2798H73.6129H82.5822C82.6436 15.2798 82.7051 15.2798 82.8279 15.2798Z" fill="white" stroke="#D6DCE8" stroke-width="2" stroke-miterlimit="10" stroke-linejoin="round"/>
<path d="M65.9952 28.4679H52.0498C51.5583 28.4679 51.1283 28.0366 51.1283 27.5435C51.1283 27.0505 51.5583 26.6191 52.0498 26.6191H65.9952C66.4867 26.6191 66.9167 27.0505 66.9167 27.5435C66.9167 28.0366 66.5481 28.4679 65.9952 28.4679Z" fill="#AAB2C5"/>
<path d="M45.4764 28.4679H27.2921C26.8006 28.4679 26.3706 28.0366 26.3706 27.5435C26.3706 27.0505 26.8006 26.6191 27.2921 26.6191H45.5378C46.0293 26.6191 46.4593 27.0505 46.4593 27.5435C46.4593 28.0366 46.0293 28.4679 45.4764 28.4679Z" fill="#D6DCE8"/>
<path d="M57.1487 37.5888H39.0259C38.5344 37.5888 38.1044 37.1574 38.1044 36.6644C38.1044 36.1714 38.5344 35.74 39.0259 35.74H57.1487C57.6402 35.74 58.0702 36.1714 58.0702 36.6644C58.1317 37.1574 57.7016 37.5888 57.1487 37.5888Z" fill="#AAB2C5"/>
<path d="M33.1897 37.5888H27.2921C26.8006 37.5888 26.3706 37.1574 26.3706 36.6644C26.3706 36.1714 26.8006 35.74 27.2921 35.74H33.1897C33.6812 35.74 34.1112 36.1714 34.1112 36.6644C34.1112 37.1574 33.6812 37.5888 33.1897 37.5888Z" fill="#D6DCE8"/>
<path d="M65.9952 46.7097H54.8757C54.3842 46.7097 53.9542 46.2783 53.9542 45.7852C53.9542 45.2922 54.3842 44.8608 54.8757 44.8608H65.9952C66.4866 44.8608 66.9167 45.2922 66.9167 45.7852C66.9167 46.2783 66.5481 46.7097 65.9952 46.7097Z" fill="#D6DCE8"/>
<path d="M49.531 46.7097H27.2921C26.8006 46.7097 26.3706 46.2783 26.3706 45.7852C26.3706 45.2922 26.8006 44.8608 27.2921 44.8608H49.531C50.0225 44.8608 50.4525 45.2922 50.4525 45.7852C50.4525 46.2783 50.0839 46.7097 49.531 46.7097Z" fill="#AAB2C5"/>
<path d="M57.1487 55.8303H44.9235C44.432 55.8303 44.002 55.3989 44.002 54.9059C44.002 54.4128 44.432 53.9814 44.9235 53.9814H57.1487C57.6402 53.9814 58.0702 54.4128 58.0702 54.9059C58.1317 55.3989 57.7016 55.8303 57.1487 55.8303Z" fill="#AAB2C5"/>
<path d="M39.5788 55.8303H27.2921C26.8006 55.8303 26.3706 55.3989 26.3706 54.9059C26.3706 54.4128 26.8006 53.9814 27.2921 53.9814H39.6402C40.1317 53.9814 40.5617 54.4128 40.5617 54.9059C40.5617 55.3989 40.1317 55.8303 39.5788 55.8303Z" fill="#D6DCE8"/>
<path d="M65.9952 64.9511H57.4559C56.9645 64.9511 56.5344 64.5197 56.5344 64.0267C56.5344 63.5337 56.9645 63.1023 57.4559 63.1023H65.9952C66.4866 63.1023 66.9167 63.5337 66.9167 64.0267C66.9167 64.5197 66.5481 64.9511 65.9952 64.9511Z" fill="#AAB2C5"/>
<path d="M51.9269 64.9511H37.6129C37.1215 64.9511 36.6914 64.5197 36.6914 64.0267C36.6914 63.5337 37.1215 63.1023 37.6129 63.1023H51.9269C52.4184 63.1023 52.8484 63.5337 52.8484 64.0267C52.8484 64.5197 52.4184 64.9511 51.9269 64.9511Z" fill="#D6DCE8"/>
<path d="M32.2682 64.9511H27.2921C26.8006 64.9511 26.3706 64.5197 26.3706 64.0267C26.3706 63.5337 26.8006 63.1023 27.2921 63.1023H32.2682C32.7597 63.1023 33.1897 63.5337 33.1897 64.0267C33.1897 64.5197 32.7597 64.9511 32.2682 64.9511Z" fill="#AAB2C5"/>
<path d="M57.1488 74.072H48.671C48.1795 74.072 47.7495 73.6406 47.7495 73.1475C47.7495 72.6545 48.1795 72.2231 48.671 72.2231H57.1488C57.6402 72.2231 58.0703 72.6545 58.0703 73.1475C58.1317 73.6406 57.7017 74.072 57.1488 74.072Z" fill="#AAB2C5"/>
<path d="M43.0805 74.072H27.2921C26.8006 74.072 26.3706 73.6406 26.3706 73.1475C26.3706 72.6545 26.8006 72.2231 27.2921 72.2231H43.0805C43.572 72.2231 44.002 72.6545 44.002 73.1475C44.002 73.6406 43.572 74.072 43.0805 74.072Z" fill="#D6DCE8"/>
<path d="M45.0464 82.6381H57.4559C57.4559 84.7334 58.316 86.6438 59.6675 87.9996C61.0191 89.417 62.9235 90.2182 65.0122 90.2182H9.16923C7.08049 90.2182 5.17604 89.3554 3.82452 87.9996C2.47298 86.6438 1.61292 84.7334 1.61292 82.6381H38.3501C38.3501 82.6381 45.1692 82.6997 45.0464 82.6381Z" fill="#F1F3F9" stroke="#D6DCE8" stroke-width="2" stroke-miterlimit="10"/>
<path d="M98.3206 76.7358L90.564 68.9852L92.3422 67.207L100.093 74.9637L98.3206 76.7358Z" fill="#D6DCE8" stroke="#AAB2C5" stroke-width="2" stroke-miterlimit="10"/>
<path d="M101.017 79.4629L95.0692 73.5151C94.5725 73.0184 94.5725 72.209 95.0692 71.7123C95.5659 71.2157 96.3753 71.2157 96.8719 71.7123L102.82 77.6601C103.316 78.1568 103.316 78.9662 102.82 79.4629C102.323 79.9595 101.514 79.9595 101.017 79.4629Z" fill="#858B9B"/>
<path d="M100.594 79.8431L92.9415 72.1906C92.7637 72.0128 92.7637 71.7246 92.9415 71.5407L94.8975 69.5847C95.0753 69.4068 95.3635 69.4068 95.5475 69.5847L103.2 77.2371C103.378 77.4149 103.378 77.7031 103.2 77.887L101.244 79.8431C101.06 80.0209 100.772 80.0209 100.594 79.8431Z" fill="#D6DCE8" stroke="#AAB2C5" stroke-width="2" stroke-miterlimit="10"/>
<path d="M81.7833 44.0107C73.6649 44.0107 67.0856 50.5901 67.0856 58.7085C67.0856 66.8208 73.6649 73.4063 81.7772 73.4063C89.8956 73.4063 96.475 66.8269 96.475 58.7085C96.475 50.5901 89.8956 44.0107 81.7833 44.0107ZM81.7833 70.6838C75.2653 70.6838 69.9859 65.3185 69.9859 58.7024C69.9859 52.0862 75.2653 46.7271 81.7833 46.7271C88.3014 46.7271 93.5808 52.0924 93.5808 58.7085C93.5808 65.3247 88.2952 70.6838 81.7833 70.6838Z" fill="#D6DCE8" stroke="#AAB2C5" stroke-width="2" stroke-miterlimit="10"/>
</svg>
