
<svg width="202" height="203" viewBox="0 0 202 203" fill="none" xmlns="http://www.w3.org/2000/svg">
<g clip-path="url(#clip0)">
<path d="M192.321 104.501C192.321 131.192 181.446 155.251 164.008 172.544C146.945 189.649 123.32 199.987 97.2578 199.987C71.3828 199.987 47.7578 189.461 30.5078 172.544C13.0703 155.251 2.19531 131.192 2.19531 104.501C2.19531 51.6838 44.7578 9.01611 97.2578 9.01611C149.758 9.01611 192.321 51.8718 192.321 104.501Z" fill="#F1F3F9" stroke="#D6DCE8" stroke-width="2" stroke-miterlimit="10"/>
<path d="M184.071 41.9095C188.316 41.9095 191.759 38.4593 191.759 34.2031C191.759 29.947 188.316 26.4966 184.071 26.4966C179.824 26.4966 176.384 29.947 176.384 34.2031C176.384 38.4593 179.824 41.9095 184.071 41.9095Z" fill="#F1F3F9"/>
<path d="M195.321 11.8355C198.22 11.8355 200.571 9.47918 200.571 6.57254C200.571 3.66588 198.22 1.30957 195.321 1.30957C192.421 1.30957 190.071 3.66588 190.071 6.57254C190.071 9.47918 192.421 11.8355 195.321 11.8355Z" fill="#F1F3F9"/>
<path d="M5.19531 41.7215C8.09481 41.7215 10.4453 39.3652 10.4453 36.4585C10.4453 33.5519 8.09481 31.1956 5.19531 31.1956C2.29581 31.1956 -0.0546875 33.5519 -0.0546875 36.4585C-0.0546875 39.3652 2.29581 41.7215 5.19531 41.7215Z" fill="#F1F3F9"/>
<path d="M182.23 49.7717V153.912C182.23 158.247 178.769 161.68 174.526 161.68H18.0488C13.806 161.68 10.2891 158.19 10.2891 153.912V49.7717C10.2891 45.4935 13.7501 42.0034 18.0488 42.0034H174.526C178.769 42.0034 182.23 45.4935 182.23 49.7717Z" fill="white" stroke="#D6DCE8" stroke-width="2" stroke-miterlimit="10" stroke-linejoin="round"/>
<path d="M182.23 49.7717V61.4241H10.2891V49.7717C10.2891 45.4935 13.7501 42.0034 18.0488 42.0034H174.526C178.769 42.0034 182.23 45.4935 182.23 49.7717Z" fill="#D6DCE8"/>
<path d="M21.1187 54.6125C22.722 54.6125 24.0218 53.3019 24.0218 51.6852C24.0218 50.0685 22.722 48.7581 21.1187 48.7581C19.5156 48.7581 18.2158 50.0685 18.2158 51.6852C18.2158 53.3019 19.5156 54.6125 21.1187 54.6125Z" fill="#AAB2C5"/>
<path d="M30.6089 54.6125C32.2122 54.6125 33.5118 53.3019 33.5118 51.6852C33.5118 50.0685 32.2122 48.7581 30.6089 48.7581C29.0056 48.7581 27.7061 50.0685 27.7061 51.6852C27.7061 53.3019 29.0056 54.6125 30.6089 54.6125Z" fill="#AAB2C5"/>
<path d="M40.0435 54.6125C41.6468 54.6125 42.9466 53.3019 42.9466 51.6852C42.9466 50.0685 41.6468 48.7581 40.0435 48.7581C38.4404 48.7581 37.1406 50.0685 37.1406 51.6852C37.1406 53.3019 38.4404 54.6125 40.0435 54.6125Z" fill="#AAB2C5"/>
<path d="M46.1846 132.352H146.335" stroke="#D5DDEA" stroke-width="2" stroke-miterlimit="10" stroke-linecap="round" stroke-linejoin="round"/>
<path d="M61.9824 143.104H130.536" stroke="#D5DDEA" stroke-width="2" stroke-miterlimit="10" stroke-linecap="round" stroke-linejoin="round"/>
<path d="M79.5125 102.067V107.865H75.9954V113.438H69.4081V107.865H54.8936V101.222L68.3474 82.3645H76.0512V102.123H79.5125V102.067ZM69.4081 90.0766L61.0342 102.067H69.4081V90.0766Z" fill="#AAB2C5"/>
<path d="M96.0362 114.057C89.0022 114.057 82.8057 107.865 82.8057 97.8452C82.8057 87.8251 88.9465 81.6331 96.0362 81.6331C103.126 81.6331 109.267 87.8251 109.267 97.8452C109.267 107.865 103.126 114.057 96.0362 114.057ZM96.0362 108.09C99.3298 108.09 102.624 104.769 102.624 97.9014C102.624 91.0338 99.3298 87.7125 96.0362 87.7125C92.7426 87.7125 89.4488 91.0338 89.4488 97.9014C89.4488 104.769 92.7426 108.09 96.0362 108.09Z" fill="#AAB2C5"/>
<path d="M137.682 102.067V107.865H134.165V113.438H127.578V107.865H113.063V101.222L126.517 82.3645H134.221V102.123H137.682V102.067ZM127.522 90.0766L119.148 102.067H127.522V90.0766Z" fill="#AAB2C5"/>
<path d="M174.627 184.676L137.228 147.214L145.802 138.618L183.171 176.111L174.627 184.676Z" fill="#D6DCE8" stroke="#AAB2C5" stroke-width="2" stroke-miterlimit="10"/>
<path d="M187.628 197.857L158.95 169.109C156.556 166.708 156.556 162.796 158.95 160.395C161.344 157.994 165.248 157.994 167.643 160.395L196.321 189.143C198.715 191.546 198.715 195.457 196.321 197.857C193.926 200.259 190.024 200.259 187.628 197.857Z" fill="#D6DCE8" stroke="#AAB2C5" stroke-width="2" stroke-miterlimit="10"/>
<path d="M185.588 199.695L148.691 162.707C147.833 161.847 147.833 160.454 148.691 159.565L158.123 150.11C158.98 149.251 160.369 149.251 161.256 150.11L198.154 187.099C199.011 187.959 199.011 189.352 198.154 190.241L188.723 199.695C187.836 200.554 186.446 200.554 185.588 199.695Z" fill="#D6DCE8" stroke="#AAB2C5" stroke-width="2" stroke-miterlimit="10"/>
<path d="M94.8897 26.4966C55.7452 26.4966 24.0215 58.2986 24.0215 97.5398C24.0215 136.751 55.7452 168.583 94.8603 168.583C134.005 168.583 165.728 136.781 165.728 97.5398C165.728 58.2986 134.005 26.4966 94.8897 26.4966ZM94.8897 155.424C63.4617 155.424 38.006 129.49 38.006 97.5101C38.006 65.5303 63.4617 39.6264 94.8897 39.6264C126.318 39.6264 151.774 65.56 151.774 97.5398C151.774 129.519 126.288 155.424 94.8897 155.424Z" fill="#D6DCE8" stroke="#AAB2C5" stroke-width="2" stroke-miterlimit="10"/>
</g>
<defs>
<clipPath id="clip0">
<rect width="202" height="203" fill="white"/>
</clipPath>
</defs>
</svg>
