<svg width="41" height="41" viewBox="0 0 41 41" fill="none" xmlns="http://www.w3.org/2000/svg">
<ellipse cx="20.1441" cy="20" rx="20.1441" ry="20" fill="#00A5FF"/>
<circle cx="30.7361" cy="34" r="6.5" fill="#20C9AC" stroke="white"/>
<path d="M32.9636 31.7275C33.0692 31.6269 33.2098 31.5713 33.3557 31.5724C33.5016 31.5735 33.6413 31.6312 33.7454 31.7334C33.8495 31.8356 33.9099 31.9742 33.9137 32.12C33.9176 32.2658 33.8647 32.4075 33.7661 32.515L30.7736 36.2575C30.7221 36.3129 30.66 36.3574 30.591 36.3883C30.5219 36.4191 30.4474 36.4358 30.3718 36.4372C30.2962 36.4386 30.221 36.4247 30.1509 36.3964C30.0808 36.3681 30.0171 36.326 29.9636 36.2725L27.9791 34.288C27.9238 34.2365 27.8795 34.1744 27.8487 34.1054C27.818 34.0364 27.8015 33.9619 27.8001 33.8864C27.7988 33.8109 27.8127 33.7358 27.841 33.6658C27.8693 33.5958 27.9114 33.5321 27.9648 33.4787C28.0182 33.4253 28.0818 33.3832 28.1519 33.3549C28.2219 33.3266 28.2969 33.3127 28.3725 33.314C28.448 33.3154 28.5225 33.3319 28.5915 33.3627C28.6605 33.3934 28.7226 33.4377 28.7741 33.493L30.3446 35.0627L32.9493 31.744C32.954 31.7382 32.959 31.7327 32.9643 31.7275H32.9636Z" fill="white"/>
<path d="M20.135 10C14.5752 10 10.073 14.48 10.073 20C10.073 25.52 14.5752 30 20.135 30C25.7049 30 30.2172 25.52 30.2172 20C30.2172 14.48 25.7049 10 20.135 10ZM24.4056 26L20.1451 23.45L15.8846 26L17.0127 21.19L13.2558 17.96L18.2113 17.54L20.1451 13L22.0789 17.53L27.0344 17.95L23.2775 21.18L24.4056 26Z" fill="#FBFAFC"/>
</svg>
