<svg width="17" height="16" viewBox="0 0 17 16" fill="none" xmlns="http://www.w3.org/2000/svg">
<path d="M10.8333 9.33333H10.3067L10.12 9.15333C10.7733 8.39333 11.1667 7.40667 11.1667 6.33333C11.1667 3.94 9.22667 2 6.83333 2C4.44 2 2.5 3.94 2.5 6.33333C2.5 8.72667 4.44 10.6667 6.83333 10.6667C7.90667 10.6667 8.89333 10.2733 9.65333 9.62L9.83333 9.80667V10.3333L13.1667 13.66L14.16 12.6667L10.8333 9.33333ZM6.83333 9.33333C5.17333 9.33333 3.83333 7.99333 3.83333 6.33333C3.83333 4.67333 5.17333 3.33333 6.83333 3.33333C8.49333 3.33333 9.83333 4.67333 9.83333 6.33333C9.83333 7.99333 8.49333 9.33333 6.83333 9.33333Z" fill="#FBFAFC"/>
</svg>
