<svg width="33" height="32" viewBox="0 0 33 32" fill="none" xmlns="http://www.w3.org/2000/svg">
<path fill-rule="evenodd" clip-rule="evenodd" d="M12.9644 0.98305C12.9644 0.440126 13.4046 0 13.9475 0H17.3832C17.9261 0 18.3662 0.440127 18.3662 0.983051V8.32008C18.3662 8.3752 18.3617 8.42927 18.353 8.48192C17.5831 7.96347 16.6589 7.6614 15.6652 7.6614C14.6715 7.6614 13.7475 7.96339 12.9777 8.48172C12.969 8.42913 12.9644 8.37513 12.9644 8.32007V0.98305ZM10.8035 12.5866H0.983051C0.440127 12.5866 0 13.0267 0 13.5696V17.076C0 17.6189 0.440127 18.059 0.983051 18.059H9.68105L3.29003 24.5336C2.90863 24.92 2.90863 25.5464 3.29003 25.9328L5.72851 28.4032C6.10991 28.7896 6.72829 28.7896 7.10969 28.4032L12.9644 22.4719V30.2098C12.9644 30.7527 13.4046 31.1928 13.9475 31.1928H17.3832C17.9261 31.1928 18.3662 30.7527 18.3662 30.2098V21.256L25.2139 28.1932C25.5953 28.5796 26.2137 28.5796 26.5951 28.1932L29.0336 25.7229C29.415 25.3365 29.415 24.71 29.0336 24.3236L22.8498 18.059H30.8877C31.4306 18.059 31.8707 17.6189 31.8707 17.076V13.5696C31.8707 13.0267 31.4306 12.5866 30.8877 12.5866H20.5268C20.5268 15.3067 18.3502 17.5118 15.6652 17.5118C12.9802 17.5118 10.8035 15.3067 10.8035 12.5866Z" fill="#FFA043"/>
<path fill-rule="evenodd" clip-rule="evenodd" d="M13.9475 0C13.4045 0 12.9644 0.440126 12.9644 0.98305V8.32007C12.9644 8.37509 12.9689 8.42905 12.9776 8.4816C13.7474 7.96334 14.6714 7.6614 15.665 7.6614C16.6588 7.6614 17.583 7.96352 18.353 8.48204C18.3617 8.42935 18.3662 8.37524 18.3662 8.32008V0.983051C18.3662 0.440127 17.9261 0 17.3832 0H13.9475Z" fill="#5546FF"/>
<ellipse cx="15.6652" cy="12.5866" rx="3.24109" ry="3.28346" fill="#5546FF"/>
</svg>
