<svg width="172" height="31" viewBox="0 0 172 31" fill="none" xmlns="http://www.w3.org/2000/svg">
<path fill-rule="evenodd" clip-rule="evenodd" d="M11.7966 2.98305C11.7966 2.44013 12.2367 2 12.7797 2H15.7288C16.2717 2 16.7119 2.44013 16.7119 2.98305V9.37288C16.7119 9.45377 16.7021 9.53237 16.6837 9.60757C15.9864 9.14849 15.1515 8.88136 14.2542 8.88136C13.357 8.88136 12.5221 9.14849 11.8248 9.60757C11.8064 9.53237 11.7966 9.45377 11.7966 9.37288V2.98305ZM9.83051 13.3051H0.983051C0.440127 13.3051 0 13.7452 0 14.2881V17.2373C0 17.7802 0.440127 18.2203 0.983051 18.2203H8.80906L3.06042 23.969C2.67652 24.3529 2.67652 24.9753 3.06042 25.3592L5.14579 27.4446C5.52969 27.8285 6.15213 27.8285 6.53603 27.4446L11.7966 22.184V29.0339C11.7966 29.5768 12.2367 30.0169 12.7797 30.0169H15.7288C16.2717 30.0169 16.7119 29.5768 16.7119 29.0339V21.0917L22.8761 27.256C23.26 27.6399 23.8825 27.6399 24.2664 27.256L26.3517 25.1706C26.7357 24.7867 26.7357 24.1643 26.3517 23.7804L20.7917 18.2203H28.0169C28.5599 18.2203 29 17.7802 29 17.2373V14.2881C29 13.7452 28.5599 13.3051 28.0169 13.3051H18.678C18.678 15.7482 16.6974 17.7288 14.2542 17.7288C11.8111 17.7288 9.83051 15.7482 9.83051 13.3051Z" fill="#FFA043"/>
<path fill-rule="evenodd" clip-rule="evenodd" d="M12.7799 2C12.237 2 11.7969 2.44013 11.7969 2.98305V9.37288C11.7969 9.45371 11.8066 9.53226 11.825 9.60742C12.5223 9.14843 13.3571 8.88136 14.2542 8.88136C15.1516 8.88136 15.9866 9.14855 16.6839 9.60772C16.7023 9.53247 16.7121 9.45382 16.7121 9.37288V2.98305C16.7121 2.44013 16.272 2 15.7291 2H12.7799Z" fill="#5546FF"/>
<circle cx="14.2538" cy="13.3051" r="2.94915" fill="#5546FF"/>
<path d="M39.788 21.21C40.3013 21.21 40.7983 21.1447 41.279 21.014C41.7643 20.8833 42.1983 20.6873 42.581 20.426C42.9637 20.16 43.267 19.8263 43.491 19.425C43.7197 19.019 43.834 18.5453 43.834 18.004C43.834 17.4953 43.7383 17.0753 43.547 16.744C43.3603 16.4127 43.12 16.1467 42.826 15.946C42.5367 15.7407 42.2333 15.582 41.916 15.47C41.5987 15.3533 41.3093 15.26 41.048 15.19L39.298 14.714C39.0833 14.658 38.8733 14.588 38.668 14.504C38.4627 14.42 38.2923 14.3103 38.157 14.175C38.0217 14.035 37.954 13.8553 37.954 13.636C37.954 13.398 38.0357 13.1927 38.199 13.02C38.367 12.8473 38.5817 12.7167 38.843 12.628C39.109 12.5347 39.3913 12.4927 39.69 12.502C40.1473 12.516 40.5673 12.6513 40.95 12.908C41.3327 13.1647 41.58 13.538 41.692 14.028L43.75 13.678C43.5073 12.7307 43.036 12.005 42.336 11.501C41.636 10.997 40.7633 10.738 39.718 10.724C39.0273 10.7193 38.3973 10.8267 37.828 11.046C37.2587 11.2653 36.8037 11.599 36.463 12.047C36.1223 12.495 35.952 13.0573 35.952 13.734C35.952 14.2147 36.0313 14.6137 36.19 14.931C36.3533 15.2437 36.5563 15.4957 36.799 15.687C37.0417 15.8783 37.2913 16.0253 37.548 16.128C37.8093 16.2307 38.038 16.31 38.234 16.366L40.852 17.136C41.244 17.2527 41.5053 17.3997 41.636 17.577C41.7667 17.7497 41.832 17.9387 41.832 18.144C41.832 18.424 41.7363 18.6597 41.545 18.851C41.3583 19.0423 41.118 19.187 40.824 19.285C40.53 19.383 40.2267 19.432 39.914 19.432C39.354 19.432 38.8547 19.2757 38.416 18.963C37.9773 18.6503 37.688 18.2047 37.548 17.626L35.56 17.92C35.6627 18.6013 35.9053 19.1893 36.288 19.684C36.6753 20.174 37.1677 20.552 37.765 20.818C38.367 21.0793 39.0413 21.21 39.788 21.21ZM47.7106 21H49.6146V12.698H52.7926V10.92H44.5326V12.698H47.7106V21ZM53.0775 21H55.4295L57.6555 17.528L59.8675 21H62.2055L58.8315 15.904L62.1215 10.92H59.7695L57.6555 14.28L55.5135 10.92H53.1755L56.4655 15.904L53.0775 21ZM66.1265 21H67.9045V14.98L70.8305 21H71.5025L74.4285 14.98V21H76.2065V10.92H74.4985L71.1665 17.612L67.8345 10.92H66.1265V21ZM78.3114 12.39H80.2154V10.71H78.3114V12.39ZM78.3114 21H80.2154V13.44H78.3114V21ZM82.3 21H84.232V17.164C84.232 16.6927 84.2833 16.3147 84.386 16.03C84.4933 15.7453 84.6287 15.5307 84.792 15.386C84.9553 15.2367 85.1303 15.1363 85.317 15.085C85.5037 15.0337 85.6787 15.008 85.842 15.008C86.248 15.008 86.5607 15.099 86.78 15.281C87.004 15.463 87.165 15.6893 87.263 15.96C87.361 16.2307 87.4193 16.5013 87.438 16.772C87.4567 17.038 87.466 17.2573 87.466 17.43V21H89.398V16.758C89.398 16.632 89.3887 16.4313 89.37 16.156C89.3513 15.8807 89.2977 15.5773 89.209 15.246C89.1203 14.91 88.971 14.588 88.761 14.28C88.5557 13.972 88.2663 13.7177 87.893 13.517C87.5197 13.3163 87.0367 13.216 86.444 13.216C85.898 13.216 85.422 13.307 85.016 13.489C84.61 13.671 84.2693 13.9137 83.994 14.217V13.44H82.3V21ZM91.3544 12.39H93.2584V10.71H91.3544V12.39ZM91.3544 21H93.2584V13.44H91.3544V21ZM95.343 21H97.275V17.164C97.275 16.6927 97.3263 16.3147 97.429 16.03C97.5363 15.7453 97.6716 15.5307 97.835 15.386C97.9983 15.2367 98.1733 15.1363 98.36 15.085C98.5466 15.0337 98.7216 15.008 98.885 15.008C99.291 15.008 99.6036 15.099 99.823 15.281C100.047 15.463 100.208 15.6893 100.306 15.96C100.404 16.2307 100.462 16.5013 100.481 16.772C100.5 17.038 100.509 17.2573 100.509 17.43V21H102.441V16.758C102.441 16.632 102.432 16.4313 102.413 16.156C102.394 15.8807 102.341 15.5773 102.252 15.246C102.163 14.91 102.014 14.588 101.804 14.28C101.599 13.972 101.309 13.7177 100.936 13.517C100.563 13.3163 100.08 13.216 99.487 13.216C98.941 13.216 98.465 13.307 98.059 13.489C97.653 13.671 97.3123 13.9137 97.037 14.217V13.44H95.343V21ZM107.323 21.21C107.678 21.21 108.005 21.168 108.303 21.084C108.607 21 108.882 20.881 109.129 20.727V21.49C109.139 21.77 109.066 22.0033 108.912 22.19C108.763 22.3813 108.562 22.5237 108.31 22.617C108.058 22.715 107.79 22.764 107.505 22.764C107.239 22.764 106.992 22.7057 106.763 22.589C106.539 22.4723 106.367 22.302 106.245 22.078L104.481 22.932C104.771 23.422 105.184 23.8163 105.72 24.115C106.257 24.4183 106.847 24.57 107.491 24.57C108.047 24.57 108.562 24.4953 109.038 24.346C109.514 24.2013 109.916 23.9797 110.242 23.681C110.574 23.3823 110.8 23.002 110.921 22.54C110.963 22.3767 110.991 22.211 111.005 22.043C111.024 21.8797 111.033 21.7047 111.033 21.518V13.44H109.367V13.86C109.111 13.6593 108.819 13.5053 108.492 13.398C108.17 13.286 107.813 13.23 107.421 13.23C106.698 13.23 106.068 13.4027 105.531 13.748C104.995 14.0933 104.577 14.567 104.278 15.169C103.984 15.7663 103.837 16.45 103.837 17.22C103.837 17.976 103.982 18.655 104.271 19.257C104.565 19.859 104.974 20.335 105.496 20.685C106.019 21.035 106.628 21.21 107.323 21.21ZM107.631 19.516C107.221 19.516 106.885 19.4133 106.623 19.208C106.362 19.0027 106.168 18.7273 106.042 18.382C105.916 18.032 105.853 17.6447 105.853 17.22C105.853 16.8 105.919 16.4173 106.049 16.072C106.18 15.722 106.381 15.4443 106.651 15.239C106.927 15.029 107.277 14.924 107.701 14.924C108.299 14.924 108.726 15.1363 108.982 15.561C109.239 15.981 109.367 16.534 109.367 17.22C109.367 17.906 109.237 18.4613 108.975 18.886C108.719 19.306 108.271 19.516 107.631 19.516ZM115.796 21H117.574V14.98L120.5 21H121.172L124.098 14.98V21H125.876V10.92H124.168L120.836 17.612L117.504 10.92H115.796V21ZM131.243 21.21C131.999 21.21 132.664 21.042 133.238 20.706C133.817 20.3653 134.267 19.8963 134.589 19.299C134.916 18.697 135.079 18.004 135.079 17.22C135.079 16.4407 134.918 15.7523 134.596 15.155C134.274 14.553 133.824 14.0817 133.245 13.741C132.671 13.4003 132.004 13.23 131.243 13.23C130.497 13.23 129.836 13.398 129.262 13.734C128.688 14.07 128.238 14.539 127.911 15.141C127.585 15.7383 127.421 16.4313 127.421 17.22C127.421 17.9993 127.58 18.69 127.897 19.292C128.219 19.8893 128.667 20.3583 129.241 20.699C129.815 21.0397 130.483 21.21 131.243 21.21ZM131.243 19.432C130.651 19.432 130.2 19.2337 129.892 18.837C129.589 18.4357 129.437 17.8967 129.437 17.22C129.437 16.562 129.582 16.03 129.871 15.624C130.165 15.2133 130.623 15.008 131.243 15.008C131.845 15.008 132.298 15.2087 132.601 15.61C132.909 16.0113 133.063 16.548 133.063 17.22C133.063 17.8687 132.912 18.4007 132.608 18.816C132.31 19.2267 131.855 19.432 131.243 19.432ZM136.605 21H138.537V17.164C138.537 16.6927 138.588 16.3147 138.691 16.03C138.798 15.7453 138.933 15.5307 139.097 15.386C139.26 15.2367 139.435 15.1363 139.622 15.085C139.808 15.0337 139.983 15.008 140.147 15.008C140.553 15.008 140.865 15.099 141.085 15.281C141.309 15.463 141.47 15.6893 141.568 15.96C141.666 16.2307 141.724 16.5013 141.743 16.772C141.761 17.038 141.771 17.2573 141.771 17.43V21H143.703V16.758C143.703 16.632 143.693 16.4313 143.675 16.156C143.656 15.8807 143.602 15.5773 143.514 15.246C143.425 14.91 143.276 14.588 143.066 14.28C142.86 13.972 142.571 13.7177 142.198 13.517C141.824 13.3163 141.341 13.216 140.749 13.216C140.203 13.216 139.727 13.307 139.321 13.489C138.915 13.671 138.574 13.9137 138.299 14.217V13.44H136.605V21ZM145.659 12.39H147.563V10.71H145.659V12.39ZM145.659 21H147.563V13.44H145.659V21ZM154.198 21V19.418C153.75 19.4787 153.341 19.4973 152.973 19.474C152.604 19.4507 152.336 19.306 152.168 19.04C152.079 18.9 152.03 18.7133 152.021 18.48C152.016 18.242 152.014 17.976 152.014 17.682V14.91H154.198V13.44H152.014V11.34H150.11V13.44H148.822V14.91H150.11V17.794C150.11 18.2467 150.114 18.6527 150.124 19.012C150.133 19.3667 150.231 19.7167 150.418 20.062C150.623 20.4307 150.922 20.699 151.314 20.867C151.71 21.0303 152.158 21.1167 152.658 21.126C153.162 21.14 153.675 21.098 154.198 21ZM158.861 21.21C159.617 21.21 160.282 21.042 160.856 20.706C161.434 20.3653 161.885 19.8963 162.207 19.299C162.533 18.697 162.697 18.004 162.697 17.22C162.697 16.4407 162.536 15.7523 162.214 15.155C161.892 14.553 161.441 14.0817 160.863 13.741C160.289 13.4003 159.621 13.23 158.861 13.23C158.114 13.23 157.454 13.398 156.88 13.734C156.306 14.07 155.855 14.539 155.529 15.141C155.202 15.7383 155.039 16.4313 155.039 17.22C155.039 17.9993 155.197 18.69 155.515 19.292C155.837 19.8893 156.285 20.3583 156.859 20.699C157.433 21.0397 158.1 21.21 158.861 21.21ZM158.861 19.432C158.268 19.432 157.818 19.2337 157.51 18.837C157.206 18.4357 157.055 17.8967 157.055 17.22C157.055 16.562 157.199 16.03 157.489 15.624C157.783 15.2133 158.24 15.008 158.861 15.008C159.463 15.008 159.915 15.2087 160.219 15.61C160.527 16.0113 160.681 16.548 160.681 17.22C160.681 17.8687 160.529 18.4007 160.226 18.816C159.927 19.2267 159.472 19.432 158.861 19.432ZM164.236 21H166.154V17.136C166.154 16.2587 166.499 15.6613 167.19 15.344C167.414 15.2367 167.664 15.1737 167.939 15.155C168.219 15.1317 168.464 15.1527 168.674 15.218V13.44C168.333 13.398 167.993 13.4073 167.652 13.468C167.311 13.524 167.003 13.636 166.728 13.804C166.551 13.9067 166.394 14.0303 166.259 14.175C166.128 14.3197 166.014 14.4807 165.916 14.658V13.44H164.236V21Z" fill="#2E2C34"/>
</svg>
