<svg width="24" height="24" viewBox="0 0 24 24" fill="none" xmlns="http://www.w3.org/2000/svg">
<path d="M12 15C12.7956 15 13.5587 14.6839 14.1213 14.1213C14.6839 13.5587 15 12.7956 15 12C15 11.2044 14.6839 10.4413 14.1213 9.87868C13.5587 9.31607 12.7956 9 12 9C11.2044 9 10.4413 9.31607 9.87868 9.87868C9.31607 10.4413 9 11.2044 9 12C9 12.7956 9.31607 13.5587 9.87868 14.1213C10.4413 14.6839 11.2044 15 12 15ZM12 17C10.6739 17 9.40215 16.4732 8.46447 15.5355C7.52678 14.5979 7 13.3261 7 12C7 10.6739 7.52678 9.40215 8.46447 8.46447C9.40215 7.52678 10.6739 7 12 7C13.3261 7 14.5979 7.52678 15.5355 8.46447C16.4732 9.40215 17 10.6739 17 12C17 13.3261 16.4732 14.5979 15.5355 15.5355C14.5979 16.4732 13.3261 17 12 17ZM12 2C12.2652 2 12.5196 2.10536 12.7071 2.29289C12.8946 2.48043 13 2.73478 13 3V5C13 5.26522 12.8946 5.51957 12.7071 5.70711C12.5196 5.89464 12.2652 6 12 6C11.7348 6 11.4804 5.89464 11.2929 5.70711C11.1054 5.51957 11 5.26522 11 5V3C11 2.73478 11.1054 2.48043 11.2929 2.29289C11.4804 2.10536 11.7348 2 12 2ZM12 18C12.2652 18 12.5196 18.1054 12.7071 18.2929C12.8946 18.4804 13 18.7348 13 19V21C13 21.2652 12.8946 21.5196 12.7071 21.7071C12.5196 21.8946 12.2652 22 12 22C11.7348 22 11.4804 21.8946 11.2929 21.7071C11.1054 21.5196 11 21.2652 11 21V19C11 18.7348 11.1054 18.4804 11.2929 18.2929C11.4804 18.1054 11.7348 18 12 18ZM3 11H5C5.26522 11 5.51957 11.1054 5.70711 11.2929C5.89464 11.4804 6 11.7348 6 12C6 12.2652 5.89464 12.5196 5.70711 12.7071C5.51957 12.8946 5.26522 13 5 13H3C2.73478 13 2.48043 12.8946 2.29289 12.7071C2.10536 12.5196 2 12.2652 2 12C2 11.7348 2.10536 11.4804 2.29289 11.2929C2.48043 11.1054 2.73478 11 3 11ZM19 11H21C21.2652 11 21.5196 11.1054 21.7071 11.2929C21.8946 11.4804 22 11.7348 22 12C22 12.2652 21.8946 12.5196 21.7071 12.7071C21.5196 12.8946 21.2652 13 21 13H19C18.7348 13 18.4804 12.8946 18.2929 12.7071C18.1054 12.5196 18 12.2652 18 12C18 11.7348 18.1054 11.4804 18.2929 11.2929C18.4804 11.1054 18.7348 11 19 11ZM19.071 4.929C19.2585 5.11653 19.3638 5.37084 19.3638 5.636C19.3638 5.90116 19.2585 6.15547 19.071 6.343L17.657 7.757C17.5648 7.85251 17.4544 7.92869 17.3324 7.9811C17.2104 8.03351 17.0792 8.0611 16.9464 8.06225C16.8136 8.0634 16.6819 8.0381 16.559 7.98782C16.4361 7.93754 16.3245 7.86329 16.2306 7.76939C16.1367 7.6755 16.0625 7.56385 16.0122 7.44095C15.9619 7.31806 15.9366 7.18638 15.9377 7.0536C15.9389 6.92082 15.9665 6.7896 16.0189 6.6676C16.0713 6.54559 16.1475 6.43525 16.243 6.343L17.657 4.929C17.8445 4.74153 18.0988 4.63621 18.364 4.63621C18.6292 4.63621 18.8835 4.74153 19.071 4.929ZM7.757 16.243C7.94447 16.4305 8.04979 16.6848 8.04979 16.95C8.04979 17.2152 7.94447 17.4695 7.757 17.657L6.343 19.07C6.25075 19.1655 6.14041 19.2417 6.0184 19.2941C5.8964 19.3465 5.76518 19.3741 5.6324 19.3752C5.49962 19.3764 5.36794 19.3511 5.24505 19.3008C5.12215 19.2505 5.0105 19.1763 4.9166 19.0824C4.82271 18.9885 4.74846 18.8769 4.69818 18.754C4.6479 18.6311 4.6226 18.4994 4.62375 18.3666C4.6249 18.2338 4.65249 18.1026 4.7049 17.9806C4.75731 17.8586 4.83349 17.7482 4.929 17.656L6.343 16.242C6.53053 16.0545 6.78484 15.9492 7.05 15.9492C7.31516 15.9492 7.56947 16.0545 7.757 16.242V16.243ZM6.343 4.929L7.757 6.343C7.93916 6.5316 8.03995 6.7842 8.03767 7.0464C8.0354 7.3086 7.93023 7.55941 7.74482 7.74482C7.55941 7.93023 7.3086 8.0354 7.0464 8.03767C6.7842 8.03995 6.5316 7.93916 6.343 7.757L4.93 6.343C4.75525 6.15313 4.66066 5.90306 4.666 5.64507C4.67135 5.38708 4.77621 5.14115 4.95868 4.95868C5.14115 4.77621 5.38708 4.67135 5.64507 4.666C5.90306 4.66066 6.15313 4.75525 6.343 4.93V4.929ZM17.657 16.243L19.071 17.657C19.2532 17.8456 19.354 18.0982 19.3517 18.3604C19.3494 18.6226 19.2442 18.8734 19.0588 19.0588C18.8734 19.2442 18.6226 19.3494 18.3604 19.3517C18.0982 19.354 17.8456 19.2532 17.657 19.071L16.243 17.657C16.1475 17.5648 16.0713 17.4544 16.0189 17.3324C15.9665 17.2104 15.9389 17.0792 15.9377 16.9464C15.9366 16.8136 15.9619 16.6819 16.0122 16.559C16.0625 16.4361 16.1367 16.3245 16.2306 16.2306C16.3245 16.1367 16.4361 16.0625 16.559 16.0122C16.6819 15.9619 16.8136 15.9366 16.9464 15.9377C17.0792 15.9389 17.2104 15.9665 17.3324 16.0189C17.4544 16.0713 17.5648 16.1475 17.657 16.243Z" fill="#FFA043"/>
</svg>
