<svg width="585" height="309" viewBox="0 0 585 309" fill="none" xmlns="http://www.w3.org/2000/svg">
<g clip-path="url(#clip0_2271_20663)">
<path d="M508.365 86.5518H447.32H76.6349C71.7794 86.5518 67.8599 90.4713 67.8599 95.3268V124.752V213.702C67.8599 218.557 71.7794 222.477 76.6349 222.477H447.32H508.365C513.22 222.477 517.14 218.557 517.14 213.702V124.752V95.3268C517.14 90.4713 513.22 86.5518 508.365 86.5518Z" fill="white" stroke="#231F20" stroke-width="1.4625" stroke-miterlimit="10"/>
<path d="M90.8214 111.677C94.1492 111.677 96.8469 108.979 96.8469 105.651C96.8469 102.324 94.1492 99.626 90.8214 99.626C87.4936 99.626 84.7959 102.324 84.7959 105.651C84.7959 108.979 87.4936 111.677 90.8214 111.677Z" fill="#231F20" stroke="#231F20" stroke-width="1.4625" stroke-miterlimit="10"/>
<path d="M111.647 111.677C114.975 111.677 117.673 108.979 117.673 105.651C117.673 102.324 114.975 99.626 111.647 99.626C108.319 99.626 105.622 102.324 105.622 105.651C105.622 108.979 108.319 111.677 111.647 111.677Z" fill="#231F20" stroke="#231F20" stroke-width="1.4625" stroke-miterlimit="10"/>
<path d="M132.502 111.677C135.83 111.677 138.528 108.979 138.528 105.651C138.528 102.324 135.83 99.626 132.502 99.626C129.174 99.626 126.477 102.324 126.477 105.651C126.477 108.979 129.174 111.677 132.502 111.677Z" fill="#231F20" stroke="#231F20" stroke-width="1.4625" stroke-miterlimit="10"/>
<path d="M277.436 58.531C284.135 46.948 300.866 46.948 307.564 58.531L357.962 145.813L408.359 233.095C415.057 244.678 406.692 259.186 393.295 259.186H292.5H191.705C178.308 259.186 169.943 244.707 176.641 233.095L227.039 145.813L277.436 58.531Z" fill="white" stroke="#231F20" stroke-width="1.4625" stroke-miterlimit="10"/>
<path d="M191.704 248.685C188.107 248.685 186.322 246.258 185.708 245.234C185.094 244.181 183.895 241.431 185.708 238.331L286.504 63.7669C288.317 60.6372 291.301 60.3154 292.5 60.3154C293.699 60.3154 296.683 60.6664 298.496 63.7669L399.292 238.331C401.105 241.461 399.906 244.21 399.292 245.234C398.677 246.287 396.893 248.685 393.295 248.685H191.704Z" fill="white" stroke="#231F20" stroke-width="1.4625" stroke-miterlimit="10"/>
<path d="M294.314 190.624C293.729 192.349 291.301 192.349 290.716 190.624L281.736 164.24L271.82 135.078C271.411 133.849 272.318 132.562 273.634 132.562H292.559H311.483C312.8 132.562 313.706 133.849 313.297 135.078L303.381 164.24L294.314 190.624Z" fill="#FA699D" stroke="#231F20" stroke-width="1.4625" stroke-miterlimit="10"/>
<path d="M292.5 223.823C298.848 223.823 303.995 218.676 303.995 212.327C303.995 205.979 298.848 200.832 292.5 200.832C286.151 200.832 281.004 205.979 281.004 212.327C281.004 218.676 286.151 223.823 292.5 223.823Z" fill="#FA699D" stroke="#231F20" stroke-width="1.4625" stroke-miterlimit="10"/>
<path d="M167.515 86.5518H227.945" stroke="#231F20" stroke-width="1.4625" stroke-miterlimit="10"/>
<path d="M197.73 56.3369V116.767" stroke="#231F20" stroke-width="1.4625" stroke-miterlimit="10"/>
<path d="M197.73 116.767C197.73 116.767 207.792 103.4 207.792 86.5522C207.792 69.7042 197.73 56.3369 197.73 56.3369" stroke="#231F20" stroke-width="1.4625" stroke-miterlimit="10"/>
<path d="M197.73 116.767C214.418 116.767 227.946 103.24 227.946 86.5522C227.946 69.8647 214.418 56.3369 197.73 56.3369C181.043 56.3369 167.515 69.8647 167.515 86.5522C167.515 103.24 181.043 116.767 197.73 116.767Z" stroke="#231F20" stroke-width="1.4625" stroke-miterlimit="10"/>
<path d="M197.73 116.767C197.73 116.767 217.883 110.04 217.883 86.5522C217.883 63.0644 197.73 56.3369 197.73 56.3369" stroke="#231F20" stroke-width="1.4625" stroke-miterlimit="10"/>
<path d="M197.729 116.767C197.729 116.767 187.667 103.4 187.667 86.5522C187.667 69.7042 197.729 56.3369 197.729 56.3369" stroke="#231F20" stroke-width="1.4625" stroke-miterlimit="10"/>
<path d="M197.73 116.767C197.73 116.767 177.577 110.04 177.577 86.5522C177.577 63.0644 197.73 56.3369 197.73 56.3369" stroke="#231F20" stroke-width="1.4625" stroke-miterlimit="10"/>
<path d="M170.703 100.095C173.921 98.7199 182.579 95.7656 197.73 95.7656C212.882 95.7656 221.51 98.7199 224.757 100.095" stroke="#231F20" stroke-width="1.4625" stroke-miterlimit="10"/>
<path d="M177.84 109.309C180.97 107.817 187.171 105.828 197.73 105.828C208.201 105.828 214.373 107.788 217.532 109.28" stroke="#231F20" stroke-width="1.4625" stroke-miterlimit="10"/>
<path d="M170.703 73.0098C173.921 74.3845 182.579 77.3388 197.73 77.3388C212.882 77.3388 221.51 74.3845 224.757 73.0098" stroke="#231F20" stroke-width="1.4625" stroke-miterlimit="10"/>
<path d="M177.84 63.7959C180.97 65.2876 187.171 67.2766 197.73 67.2766C208.201 67.2766 214.373 65.3169 217.532 63.8251" stroke="#231F20" stroke-width="1.4625" stroke-miterlimit="10"/>
<path d="M437.376 286.155C449.573 286.155 459.46 276.268 459.46 264.071C459.46 251.875 449.573 241.987 437.376 241.987C425.18 241.987 415.292 251.875 415.292 264.071C415.292 276.268 425.18 286.155 437.376 286.155Z" fill="white" stroke="#231F20" stroke-width="1.4625" stroke-miterlimit="10"/>
<path d="M437.375 264.071C450.83 266.558 447.671 283.61 447.671 283.61" stroke="#231F20" stroke-width="1.4625" stroke-miterlimit="10"/>
<path d="M437.375 264.071C446.267 253.687 459.459 264.919 459.459 264.919" stroke="#231F20" stroke-width="1.4625" stroke-miterlimit="10"/>
<path d="M437.376 264.071C432.813 251.171 449.164 245.38 449.164 245.38" stroke="#231F20" stroke-width="1.4625" stroke-miterlimit="10"/>
<path d="M437.376 264.071C423.921 261.585 427.08 244.532 427.08 244.532" stroke="#231F20" stroke-width="1.4625" stroke-miterlimit="10"/>
<path d="M437.376 264.071C428.484 274.455 415.292 263.223 415.292 263.223" stroke="#231F20" stroke-width="1.4625" stroke-miterlimit="10"/>
<path d="M437.376 264.071C441.939 276.971 425.588 282.762 425.588 282.762" stroke="#231F20" stroke-width="1.4625" stroke-miterlimit="10"/>
<path d="M312.449 292.473L314.818 298.586L320.931 300.955L314.818 303.295L312.449 309.408L310.109 303.295L303.996 300.955L310.109 298.586L312.449 292.473Z" fill="#231F20"/>
<path d="M159.032 153.739L161.401 159.882L167.514 162.222L161.401 164.591L159.032 170.704L156.692 164.591L150.579 162.222L156.692 159.882L159.032 153.739Z" fill="#231F20"/>
<path d="M130.075 26.0049L132.415 32.1181L138.528 34.4874L132.415 36.8274L130.075 42.9406L127.706 36.8274L121.592 34.4874L127.706 32.1181L130.075 26.0049Z" fill="#231F20"/>
<path d="M365.742 -0.408203L368.082 5.70505L374.196 8.04505L368.082 10.4143L365.742 16.5275L363.373 10.4143L357.26 8.04505L363.373 5.70505L365.742 -0.408203Z" fill="#231F20"/>
<path d="M132.502 253.804L134.871 259.917L140.985 262.286L134.871 264.655L132.502 270.769L130.162 264.655L124.02 262.286L130.162 259.917L132.502 253.804Z" fill="#231F20"/>
<path d="M343.482 60.3145H482.976" stroke="#231F20" stroke-width="1.4625" stroke-miterlimit="10"/>
<path d="M460.57 76.1095C460.57 76.1095 465.046 60.3145 482.976 60.3145C465.046 60.3145 460.57 44.5195 460.57 44.5195" stroke="#231F20" stroke-width="1.4625" stroke-miterlimit="10"/>
<path d="M421.697 167.429L424.066 173.542L430.179 175.911L424.066 178.251L421.697 184.394L419.328 178.28L413.214 175.911L419.357 173.542L421.697 167.429Z" fill="#231F20"/>
<path d="M474.494 115.598L476.863 121.711L482.976 124.051L476.863 126.42L474.494 132.533L472.124 126.42L466.011 124.051L472.154 121.711L474.494 115.598Z" fill="#231F20"/>
</g>
<defs>
<clipPath id="clip0_2271_20663">
<rect width="585" height="309" fill="white"/>
</clipPath>
</defs>
</svg>
