<svg width="394" height="259" viewBox="0 0 394 259" fill="none" xmlns="http://www.w3.org/2000/svg">
<path d="M41.4629 237.396H89.2675V241.275H41.4629V237.396Z" fill="#E7EBF2"/>
<path d="M44.4177 228.705C44.8198 227.47 45.9713 226.634 47.2703 226.634H83.5852C84.8842 226.634 86.0357 227.47 86.4378 228.705L89.2675 237.396H41.588L44.4177 228.705Z" fill="#E7EBF2"/>
<path d="M26.6959 72.4573V87.099H163.602L150.337 73.7087L26.6959 72.4573Z" stroke="#E7EBF2" stroke-width="2" stroke-miterlimit="10" stroke-linejoin="round"/>
<path d="M104.41 87.099V73.7087L119.677 87.099V73.7087L135.07 87.099V73.7087L150.337 87.099V74.2093V73.7087" stroke="#E7EBF2" stroke-width="2" stroke-miterlimit="10" stroke-linejoin="round"/>
<path d="M43.0897 87.099V72.7075" stroke="#E7EBF2" stroke-width="2" stroke-miterlimit="10" stroke-linejoin="round"/>
<path d="M89.0172 73.7087V87.099L73.7498 73.7087" stroke="#E7EBF2" stroke-width="2" stroke-miterlimit="10" stroke-linejoin="round"/>
<path d="M73.7495 73.7087V87.099" stroke="#E7EBF2" stroke-width="2" stroke-miterlimit="10" stroke-linejoin="round"/>
<path d="M57.2308 220.376H73.6245V58.8166L65.3651 51.1829L57.2308 58.8166V220.376Z" stroke="#E7EBF2" stroke-width="2" stroke-miterlimit="10" stroke-linejoin="round"/>
<path d="M73.6245 59.6926H57.2308" stroke="#E7EBF2" stroke-width="2" stroke-miterlimit="10"/>
<path d="M73.6245 100.99H57.2308" stroke="#E7EBF2" stroke-width="2" stroke-miterlimit="10" stroke-linejoin="round"/>
<path d="M73.6245 114.255H57.2308" stroke="#E7EBF2" stroke-width="2" stroke-miterlimit="10"/>
<path d="M73.6245 127.395H57.2308" stroke="#E7EBF2" stroke-width="2" stroke-miterlimit="10"/>
<path d="M73.6245 140.66H57.2308" stroke="#E7EBF2" stroke-width="2" stroke-miterlimit="10"/>
<path d="M73.6245 153.925H57.2308" stroke="#E7EBF2" stroke-width="2" stroke-miterlimit="10"/>
<path d="M73.6245 167.19H57.2308" stroke="#E7EBF2" stroke-width="2" stroke-miterlimit="10"/>
<path d="M73.6245 180.33H57.2308" stroke="#E7EBF2" stroke-width="2" stroke-miterlimit="10"/>
<path d="M73.6245 193.596H57.2308" stroke="#E7EBF2" stroke-width="2" stroke-miterlimit="10"/>
<path d="M73.6245 206.861H57.2308" stroke="#E7EBF2" stroke-width="2" stroke-miterlimit="10"/>
<path d="M138.198 73.5834L65.365 51.1829L30.7004 72.5823" stroke="#E7EBF2" stroke-width="2" stroke-miterlimit="10" stroke-linejoin="round"/>
<path d="M73.7496 87.0987L57.2308 72.9575" stroke="#E7EBF2" stroke-width="2" stroke-miterlimit="10" stroke-linejoin="round"/>
<path d="M57.7314 87.5996L73.2491 100.489" stroke="#E7EBF2" stroke-width="2" stroke-miterlimit="10" stroke-linejoin="round"/>
<path d="M57.7314 59.9429L73.3743 72.4572" stroke="#E7EBF2" stroke-width="2" stroke-miterlimit="10" stroke-linejoin="round"/>
<path d="M43.5902 72.9575L56.6051 86.8484" stroke="#E7EBF2" stroke-width="2" stroke-miterlimit="10" stroke-linejoin="round"/>
<path d="M42.7141 86.8484L26.821 72.9575" stroke="#E7EBF2" stroke-width="2" stroke-miterlimit="10" stroke-linejoin="round"/>
<path d="M89.5176 73.5835L103.909 86.4732" stroke="#E7EBF2" stroke-width="2" stroke-miterlimit="10" stroke-linejoin="round"/>
<path d="M57.8566 101.365L73.2491 113.755" stroke="#E7EBF2" stroke-width="2" stroke-miterlimit="10" stroke-linejoin="round"/>
<path d="M57.8566 114.756L73.2491 126.894" stroke="#E7EBF2" stroke-width="2" stroke-miterlimit="10" stroke-linejoin="round"/>
<path d="M57.7314 127.896L73.2491 140.16" stroke="#E7EBF2" stroke-width="2" stroke-miterlimit="10" stroke-linejoin="round"/>
<path d="M57.7314 141.286L73.2491 153.425" stroke="#E7EBF2" stroke-width="2" stroke-miterlimit="10" stroke-linejoin="round"/>
<path d="M57.7314 154.426L73.2491 166.565" stroke="#E7EBF2" stroke-width="2" stroke-miterlimit="10" stroke-linejoin="round"/>
<path d="M57.7314 167.566L73.2491 179.83" stroke="#E7EBF2" stroke-width="2" stroke-miterlimit="10" stroke-linejoin="round"/>
<path d="M57.7314 180.831L73.2491 193.095" stroke="#E7EBF2" stroke-width="2" stroke-miterlimit="10" stroke-linejoin="round"/>
<path d="M57.7314 194.096L73.2491 206.36" stroke="#E7EBF2" stroke-width="2" stroke-miterlimit="10" stroke-linejoin="round"/>
<path d="M57.7314 207.486L73.2491 219.625" stroke="#E7EBF2" stroke-width="2" stroke-miterlimit="10" stroke-linejoin="round"/>
<path d="M49.72 220.251H81.0103C82.1148 220.251 83.0103 221.146 83.0103 222.251V226.633H47.72V222.251C47.72 221.146 48.6154 220.251 49.72 220.251Z" fill="#E7EBF2"/>
<path d="M91.52 99.2379L82.1343 108.624C81.5086 109.249 80.6326 109.625 79.8817 109.625H56.3549V87.5996H92.6463V96.8602C92.3961 97.8613 92.1458 98.6122 91.52 99.2379Z" fill="#E7EBF2"/>
<path d="M70.1385 97.5974H61.126C60.5737 97.5974 60.126 97.1497 60.126 96.5974V92.2151C60.126 91.6628 60.5737 91.2151 61.126 91.2151H70.1385C70.6908 91.2151 71.1385 91.6628 71.1385 92.2151V96.5974C71.1385 97.1497 70.6908 97.5974 70.1385 97.5974Z" fill="white"/>
<path d="M84.3749 97.5972H75.3623C74.81 97.5972 74.3623 97.1495 74.3623 96.5972V92.2149C74.3623 91.6626 74.81 91.2149 75.3623 91.2149H84.3749C84.9272 91.2149 85.3749 91.6626 85.3749 92.2149V96.5972C85.3749 97.1495 84.9272 97.5972 84.3749 97.5972Z" fill="white"/>
<path d="M29.1492 202.15H24.2424V242.195H29.1492V202.15Z" fill="#B9C0D0"/>
<path d="M63.9716 202.15H59.0648V242.195H63.9716V202.15Z" fill="#B9C0D0"/>
<path d="M212.125 240.771C198.829 241.087 183 240.771 171.762 240.612C160.524 240.929 144.696 241.087 131.4 240.771C144.538 233.331 148.97 219.561 149.761 210.38H193.605C194.555 219.561 198.987 233.331 212.125 240.771Z" fill="url(#paint0_linear)"/>
<path d="M254.228 95.1504V208.956C254.228 211.805 252.012 213.863 249.321 213.863H94.2037C91.5128 213.863 89.2969 211.647 89.2969 208.956V95.1504C89.2969 92.4596 91.5128 90.2437 94.2037 90.2437H249.321C252.012 90.2437 254.228 92.3013 254.228 95.1504Z" fill="#E8EDF8"/>
<path d="M254.228 95.1504V193.286H89.4551V95.1504C89.4551 92.4596 91.671 90.2437 94.3619 90.2437H249.479C252.012 90.2437 254.228 92.3013 254.228 95.1504Z" fill="#B9C0D0"/>
<path d="M248.371 96.2578H95.3115V187.587H248.213V96.2578H248.371Z" fill="white"/>
<path d="M171.762 207.531C174.035 207.531 175.878 205.689 175.878 203.416C175.878 201.143 174.035 199.3 171.762 199.3C169.489 199.3 167.647 201.143 167.647 203.416C167.647 205.689 169.489 207.531 171.762 207.531Z" fill="#B9C0D0"/>
<path d="M344.717 206.582H340.443V241.721H344.717V206.582Z" fill="#B9C0D0"/>
<path d="M375.266 206.582H370.992V241.721H375.266V206.582Z" fill="#B9C0D0"/>
<path d="M380.647 208.165H335.695V222.568H380.647V208.165Z" fill="#E8EDF8"/>
<path d="M346.617 208.165L341.868 222.568H336.486L341.077 208.165H346.617Z" fill="url(#paint1_linear)"/>
<path d="M357.538 208.165L352.789 222.568H347.408L351.998 208.165H357.538Z" fill="url(#paint2_linear)"/>
<path d="M368.459 208.165L363.711 222.568H358.329L362.92 208.165H368.459Z" fill="url(#paint3_linear)"/>
<path d="M379.381 208.165L374.633 222.568H369.251L373.841 208.165H379.381Z" fill="url(#paint4_linear)"/>
<path d="M70.1446 204.049H18.8608V220.511H70.1446V204.049Z" fill="#E8EDF8"/>
<path d="M31.2069 204.049L25.8253 220.352H19.6522L25.0338 204.049H31.2069Z" fill="url(#paint5_linear)"/>
<path d="M43.7113 204.049L38.3297 220.352H32.1566L37.38 204.049H43.7113Z" fill="url(#paint6_linear)"/>
<path d="M56.2157 204.049L50.8341 220.352H44.661L49.8844 204.049H56.2157Z" fill="url(#paint7_linear)"/>
<path d="M68.7201 204.049L63.3384 220.352H57.1654L62.3887 204.049H68.7201Z" fill="url(#paint8_linear)"/>
<path d="M191.864 46.0828V65.3933" stroke="#BBC1CF" stroke-width="2" stroke-miterlimit="10" stroke-linejoin="round"/>
<path d="M191.943 73.7823C195.047 73.7823 197.563 71.2665 197.563 68.1632C197.563 65.0599 195.047 62.5442 191.943 62.5442C188.84 62.5442 186.324 65.0599 186.324 68.1632C186.324 71.2665 188.84 73.7823 191.943 73.7823Z" fill="#B9C0D0"/>
<path d="M186.483 83.1211C186.483 86.6033 189.648 89.4524 193.447 88.5027C195.505 88.0278 197.088 86.445 197.563 84.3873C198.196 81.3799 196.455 78.5309 193.764 77.7394C192.814 77.4229 192.181 76.6315 192.181 75.5235V70.6167" stroke="#BBC1CF" stroke-width="2" stroke-miterlimit="10" stroke-linejoin="round"/>
<path d="M328.621 236.972H268.157V241.879H328.621V236.972Z" fill="url(#paint9_linear)"/>
<path d="M324.705 225.431C324.303 224.196 323.151 223.36 321.852 223.36H274.767C273.468 223.36 272.316 224.196 271.914 225.431L268.157 236.972H328.463L324.705 225.431Z" fill="#CAD0DD"/>
<path d="M347.298 28.3545V46.8736H174.136L190.914 29.9373L347.298 28.3545Z" stroke="#BBC1CF" stroke-width="2" stroke-miterlimit="10" stroke-linejoin="round"/>
<path d="M249.004 46.8735V29.9373L229.694 46.8735V29.9373L210.225 46.8735V29.9373L190.914 46.8735V30.5704V29.9373" stroke="#BBC1CF" stroke-width="2" stroke-miterlimit="10" stroke-linejoin="round"/>
<path d="M326.563 46.8737V28.6711" stroke="#BBC1CF" stroke-width="2" stroke-miterlimit="10" stroke-linejoin="round"/>
<path d="M268.473 29.9373V46.8735L287.784 29.9373" stroke="#BBC1CF" stroke-width="2" stroke-miterlimit="10" stroke-linejoin="round"/>
<path d="M287.784 29.9373V46.8735" stroke="#BBC1CF" stroke-width="2" stroke-miterlimit="10" stroke-linejoin="round"/>
<path d="M308.677 215.445H287.942V11.1016L298.389 1.44629L308.677 11.1016V215.445Z" stroke="#BBC1CF" stroke-width="2" stroke-miterlimit="10" stroke-linejoin="round"/>
<path d="M287.942 12.2097H308.677" stroke="#BBC1CF" stroke-width="2" stroke-miterlimit="10"/>
<path d="M287.942 64.4431H308.677" stroke="#BBC1CF" stroke-width="2" stroke-miterlimit="10" stroke-linejoin="round"/>
<path d="M287.942 81.2207H308.677" stroke="#BBC1CF" stroke-width="2" stroke-miterlimit="10"/>
<path d="M287.942 97.8408H308.677" stroke="#BBC1CF" stroke-width="2" stroke-miterlimit="10"/>
<path d="M287.942 114.619H308.677" stroke="#BBC1CF" stroke-width="2" stroke-miterlimit="10"/>
<path d="M287.942 131.397H308.677" stroke="#BBC1CF" stroke-width="2" stroke-miterlimit="10"/>
<path d="M287.942 148.175H308.677" stroke="#BBC1CF" stroke-width="2" stroke-miterlimit="10"/>
<path d="M287.942 164.794H308.677" stroke="#BBC1CF" stroke-width="2" stroke-miterlimit="10"/>
<path d="M287.942 181.573H308.677" stroke="#BBC1CF" stroke-width="2" stroke-miterlimit="10"/>
<path d="M287.942 198.35H308.677" stroke="#BBC1CF" stroke-width="2" stroke-miterlimit="10"/>
<path d="M206.268 29.779L298.389 1.44629L342.233 28.5127" stroke="#BBC1CF" stroke-width="2" stroke-miterlimit="10" stroke-linejoin="round"/>
<path d="M287.784 46.8733L308.677 28.9873" stroke="#BBC1CF" stroke-width="2" stroke-miterlimit="10" stroke-linejoin="round"/>
<path d="M308.044 47.5068L288.417 63.81" stroke="#BBC1CF" stroke-width="2" stroke-miterlimit="10" stroke-linejoin="round"/>
<path d="M308.044 12.5261L288.259 28.3544" stroke="#BBC1CF" stroke-width="2" stroke-miterlimit="10" stroke-linejoin="round"/>
<path d="M325.93 28.9873L309.469 46.5567" stroke="#BBC1CF" stroke-width="2" stroke-miterlimit="10" stroke-linejoin="round"/>
<path d="M327.038 46.5567L347.14 28.9873" stroke="#BBC1CF" stroke-width="2" stroke-miterlimit="10" stroke-linejoin="round"/>
<path d="M267.84 29.7788L249.637 46.082" stroke="#BBC1CF" stroke-width="2" stroke-miterlimit="10" stroke-linejoin="round"/>
<path d="M307.886 64.918L288.417 80.588" stroke="#BBC1CF" stroke-width="2" stroke-miterlimit="10" stroke-linejoin="round"/>
<path d="M307.886 81.8542L288.417 97.2077" stroke="#BBC1CF" stroke-width="2" stroke-miterlimit="10" stroke-linejoin="round"/>
<path d="M308.044 98.4739L288.417 113.986" stroke="#BBC1CF" stroke-width="2" stroke-miterlimit="10" stroke-linejoin="round"/>
<path d="M308.044 115.41L288.417 130.764" stroke="#BBC1CF" stroke-width="2" stroke-miterlimit="10" stroke-linejoin="round"/>
<path d="M308.044 132.03L288.417 147.383" stroke="#BBC1CF" stroke-width="2" stroke-miterlimit="10" stroke-linejoin="round"/>
<path d="M308.044 148.65L288.417 164.161" stroke="#BBC1CF" stroke-width="2" stroke-miterlimit="10" stroke-linejoin="round"/>
<path d="M308.044 165.428L288.417 180.94" stroke="#BBC1CF" stroke-width="2" stroke-miterlimit="10" stroke-linejoin="round"/>
<path d="M308.044 182.206L288.417 197.717" stroke="#BBC1CF" stroke-width="2" stroke-miterlimit="10" stroke-linejoin="round"/>
<path d="M308.044 199.142L288.417 214.495" stroke="#BBC1CF" stroke-width="2" stroke-miterlimit="10" stroke-linejoin="round"/>
<path d="M318.707 215.287H278.071C276.966 215.287 276.071 216.183 276.071 217.287V223.36H320.707V217.287C320.707 216.183 319.811 215.287 318.707 215.287Z" fill="url(#paint10_linear)"/>
<path d="M122.853 182.048H103.226C101.643 182.048 100.377 180.782 100.377 179.199V103.54C100.377 101.957 101.643 100.69 103.226 100.69H122.853C124.436 100.69 125.702 101.957 125.702 103.54V179.199C125.702 180.782 124.436 182.048 122.853 182.048Z" fill="#E8EDF8"/>
<path d="M113.039 115.885C115.662 115.885 117.788 113.759 117.788 111.137C117.788 108.514 115.662 106.388 113.039 106.388C110.417 106.388 108.291 108.514 108.291 111.137C108.291 113.759 110.417 115.885 113.039 115.885Z" fill="url(#paint11_linear)"/>
<path d="M121.428 122.85H104.65C104.334 122.85 104.175 122.691 104.175 122.375V121.109C104.175 120.792 104.334 120.634 104.65 120.634H121.27C121.587 120.634 121.745 120.792 121.745 121.109V122.375C121.903 122.691 121.587 122.85 121.428 122.85Z" fill="url(#paint12_linear)"/>
<path d="M121.428 129.497H104.65C104.334 129.497 104.175 129.339 104.175 129.023V127.756C104.175 127.44 104.334 127.281 104.65 127.281H121.27C121.587 127.281 121.745 127.44 121.745 127.756V129.023C121.903 129.339 121.587 129.497 121.428 129.497Z" fill="url(#paint13_linear)"/>
<path d="M121.428 136.146H104.65C104.334 136.146 104.175 135.987 104.175 135.671V134.405C104.175 134.088 104.334 133.93 104.65 133.93H121.27C121.587 133.93 121.745 134.088 121.745 134.405V135.671C121.903 135.987 121.587 136.146 121.428 136.146Z" fill="url(#paint14_linear)"/>
<path d="M121.428 142.952H104.65C104.334 142.952 104.175 142.793 104.175 142.477V141.21C104.175 140.894 104.334 140.736 104.65 140.736H121.27C121.587 140.736 121.745 140.894 121.745 141.21V142.477C121.903 142.635 121.587 142.952 121.428 142.952Z" fill="url(#paint15_linear)"/>
<path d="M121.428 149.6H104.65C104.334 149.6 104.175 149.441 104.175 149.125V147.859C104.175 147.542 104.334 147.384 104.65 147.384H121.27C121.587 147.384 121.745 147.542 121.745 147.859V149.125C121.903 149.283 121.587 149.6 121.428 149.6Z" fill="url(#paint16_linear)"/>
<path d="M121.428 156.247H104.65C104.334 156.247 104.175 156.089 104.175 155.772V154.506C104.175 154.19 104.334 154.031 104.65 154.031H121.27C121.587 154.031 121.745 154.19 121.745 154.506V155.772C121.903 156.089 121.587 156.247 121.428 156.247Z" fill="url(#paint17_linear)"/>
<path d="M118.421 162.895H107.816C107.499 162.895 107.341 162.737 107.341 162.421V161.154C107.341 160.838 107.499 160.679 107.816 160.679H118.421C118.738 160.679 118.896 160.838 118.896 161.154V162.421C118.896 162.737 118.579 162.895 118.421 162.895Z" fill="url(#paint18_linear)"/>
<path d="M181.893 170.651H139.631V173.025H181.893V170.651Z" fill="url(#paint19_linear)"/>
<path d="M162.582 176.982H139.631V179.356H162.582V176.982Z" fill="url(#paint20_linear)"/>
<path d="M232.701 170.651H190.44V173.025H232.701V170.651Z" fill="url(#paint21_linear)"/>
<path d="M213.391 176.982H190.44V179.356H213.391V176.982Z" fill="url(#paint22_linear)"/>
<path d="M154.893 93.4866L188.4 86.8204C190.856 86.2941 193.312 86.8204 195.241 88.0484L221.029 102.96" stroke="#BBC1CF" stroke-width="2" stroke-miterlimit="10" stroke-linejoin="round"/>
<g filter="url(#filter0_d)">
<path d="M220.66 173.657L135.789 160.851C133.158 160.5 131.404 158.044 131.754 155.412L140.35 94.1883C140.701 91.5569 143.157 89.8026 145.789 90.1535L230.66 102.96C233.291 103.31 235.045 105.766 234.695 108.398L226.099 169.622C225.748 172.078 223.292 174.008 220.66 173.657Z" fill="white"/>
</g>
<path d="M217.881 166.689L142.014 154.84C139.869 154.554 138.439 152.552 138.725 150.408L145.731 100.507C146.017 98.3623 148.019 96.9325 150.163 97.2185L226.031 109.068C228.176 109.354 229.606 111.355 229.32 113.5L222.314 163.401C222.028 165.403 220.026 166.975 217.881 166.689Z" fill="#EFF3FB"/>
<path d="M265.308 62.2274L277.179 74.0986C277.97 74.8901 279.078 75.3649 280.028 75.3649H309.785V47.5071H263.883V59.22C264.2 60.4863 264.516 61.436 265.308 62.2274Z" fill="#B9C0D0"/>
<path d="M292.086 60.1521H304.015C304.568 60.1521 305.015 59.7044 305.015 59.1521V53.0797C305.015 52.5274 304.568 52.0797 304.015 52.0797H292.086C291.534 52.0797 291.086 52.5274 291.086 53.0797V59.1521C291.086 59.7044 291.534 60.1521 292.086 60.1521Z" fill="white"/>
<path d="M274.08 60.1521H286.009C286.561 60.1521 287.009 59.7044 287.009 59.1521V53.0797C287.009 52.5274 286.561 52.0797 286.009 52.0797H274.08C273.528 52.0797 273.08 52.5274 273.08 53.0797V59.1521C273.08 59.7044 273.528 60.1521 274.08 60.1521Z" fill="white"/>
<path d="M2.08276 242.195H392.058" stroke="#CDD6E1" stroke-width="3" stroke-miterlimit="10" stroke-linecap="round" stroke-linejoin="round"/>
<path d="M136.932 240.93H115.564L116.513 238.555L118.729 232.541L120.629 227.317L122.845 221.303L124.428 217.187C124.744 216.396 125.536 215.763 126.327 215.763C127.118 215.763 127.91 216.238 128.226 217.187L129.809 221.303L132.025 227.317L133.925 232.541L136.141 238.555L136.932 240.93Z" fill="#E8EDF8"/>
<path d="M132.031 227.317H120.641L122.782 221.461H129.86L132.031 227.317Z" fill="url(#paint23_linear)"/>
<path d="M136.134 238.556H116.507L118.723 232.541H133.918L136.134 238.556Z" fill="url(#paint24_linear)"/>
<path d="M136.932 240.93H115.405C114.772 240.93 114.139 240.455 114.139 239.664C114.139 239.031 114.614 238.397 115.405 238.397H136.932C137.565 238.397 138.198 238.872 138.198 239.664C138.198 240.455 137.723 240.93 136.932 240.93Z" fill="#E8EDF8"/>
<path d="M254.03 240.93H232.661L233.611 238.555L235.827 232.541L237.726 227.317L239.942 221.303L241.525 217.187C241.842 216.396 242.633 215.763 243.425 215.763C244.216 215.763 245.007 216.238 245.324 217.187L246.907 221.303L249.123 227.317L251.022 232.541L253.238 238.555L254.03 240.93Z" fill="#E8EDF8"/>
<path d="M249.129 227.317H237.739L239.88 221.461H246.958L249.129 227.317Z" fill="url(#paint25_linear)"/>
<path d="M253.231 238.556H233.604L235.82 232.541H251.015L253.231 238.556Z" fill="url(#paint26_linear)"/>
<path d="M254.03 240.93H232.503C231.87 240.93 231.237 240.455 231.237 239.664C231.237 239.031 231.712 238.397 232.503 238.397H254.03C254.663 238.397 255.296 238.872 255.296 239.664C255.296 240.455 254.821 240.93 254.03 240.93Z" fill="#E8EDF8"/>
<path d="M167.1 133.793C169.342 134.134 171.526 132.526 171.867 130.284C172.207 128.043 170.599 125.859 168.358 125.518C166.117 125.178 163.932 126.786 163.592 129.027C163.251 131.268 164.859 133.452 167.1 133.793Z" fill="#989FB0"/>
<path d="M198.82 138.613C201.061 138.954 203.246 137.346 203.586 135.105C203.927 132.863 202.319 130.679 200.078 130.338C197.836 129.998 195.652 131.606 195.311 133.847C194.945 136.26 196.579 138.273 198.82 138.613Z" fill="#989FB0"/>
<path d="M169.648 115.943L159.8 119.474L160.682 121.936L170.53 118.405L169.648 115.943Z" fill="#989FB0"/>
<path d="M200.976 120.637L199.402 122.726L207.758 129.022L209.332 126.933L200.976 120.637Z" fill="#989FB0"/>
<path d="M181.493 145.857C184.159 146.262 186.566 144.969 186.87 142.97C187.174 140.971 185.259 139.021 182.593 138.616C179.928 138.211 177.52 139.504 177.216 141.503C176.913 143.502 178.827 145.452 181.493 145.857Z" fill="#989FB0"/>
<path d="M114.617 256.511H324.892" stroke="#CDD6E1" stroke-width="3" stroke-miterlimit="10" stroke-linecap="round" stroke-linejoin="round"/>
<path d="M46.2231 256.511H72.7965" stroke="#CDD6E1" stroke-width="3" stroke-miterlimit="10" stroke-linecap="round" stroke-linejoin="round"/>
<defs>
<filter id="filter0_d" x="109.709" y="85.1089" width="147.03" height="127.589" filterUnits="userSpaceOnUse" color-interpolation-filters="sRGB">
<feFlood flood-opacity="0" result="BackgroundImageFix"/>
<feColorMatrix in="SourceAlpha" type="matrix" values="0 0 0 0 0 0 0 0 0 0 0 0 0 0 0 0 0 0 127 0" result="hardAlpha"/>
<feOffset dy="17"/>
<feGaussianBlur stdDeviation="11"/>
<feColorMatrix type="matrix" values="0 0 0 0 0.397708 0 0 0 0 0.47749 0 0 0 0 0.575 0 0 0 0.37 0"/>
<feBlend mode="normal" in2="BackgroundImageFix" result="effect1_dropShadow"/>
<feBlend mode="normal" in="SourceGraphic" in2="effect1_dropShadow" result="shape"/>
</filter>
<linearGradient id="paint0_linear" x1="171.833" y1="240.016" x2="171.833" y2="212.824" gradientUnits="userSpaceOnUse">
<stop stop-color="#F5F8FF"/>
<stop offset="0.9913" stop-color="#D8E0EB"/>
</linearGradient>
<linearGradient id="paint1_linear" x1="341.552" y1="208.165" x2="341.552" y2="222.568" gradientUnits="userSpaceOnUse">
<stop stop-color="#E3E8F0"/>
<stop offset="1" stop-color="#CCD3DE"/>
</linearGradient>
<linearGradient id="paint2_linear" x1="352.473" y1="208.165" x2="352.473" y2="222.568" gradientUnits="userSpaceOnUse">
<stop stop-color="#E3E8F0"/>
<stop offset="1" stop-color="#CCD3DE"/>
</linearGradient>
<linearGradient id="paint3_linear" x1="363.394" y1="208.165" x2="363.394" y2="222.568" gradientUnits="userSpaceOnUse">
<stop stop-color="#E3E8F0"/>
<stop offset="1" stop-color="#CCD3DE"/>
</linearGradient>
<linearGradient id="paint4_linear" x1="374.316" y1="208.165" x2="374.316" y2="222.568" gradientUnits="userSpaceOnUse">
<stop stop-color="#E3E8F0"/>
<stop offset="1" stop-color="#CCD3DE"/>
</linearGradient>
<linearGradient id="paint5_linear" x1="25.4296" y1="204.049" x2="25.4296" y2="220.352" gradientUnits="userSpaceOnUse">
<stop stop-color="#E3E8F0"/>
<stop offset="1" stop-color="#CCD3DE"/>
</linearGradient>
<linearGradient id="paint6_linear" x1="37.9339" y1="204.049" x2="37.9339" y2="220.352" gradientUnits="userSpaceOnUse">
<stop stop-color="#E3E8F0"/>
<stop offset="1" stop-color="#CCD3DE"/>
</linearGradient>
<linearGradient id="paint7_linear" x1="50.4383" y1="204.049" x2="50.4383" y2="220.352" gradientUnits="userSpaceOnUse">
<stop stop-color="#E3E8F0"/>
<stop offset="1" stop-color="#CCD3DE"/>
</linearGradient>
<linearGradient id="paint8_linear" x1="62.9427" y1="204.049" x2="62.9427" y2="220.352" gradientUnits="userSpaceOnUse">
<stop stop-color="#E3E8F0"/>
<stop offset="1" stop-color="#CCD3DE"/>
</linearGradient>
<linearGradient id="paint9_linear" x1="268.102" y1="239.333" x2="328.519" y2="239.333" gradientUnits="userSpaceOnUse">
<stop stop-color="#B0BACC"/>
<stop offset="1" stop-color="#969EAE"/>
</linearGradient>
<linearGradient id="paint10_linear" x1="276.135" y1="219.382" x2="320.727" y2="219.382" gradientUnits="userSpaceOnUse">
<stop stop-color="#B0BACC"/>
<stop offset="1" stop-color="#969EAE"/>
</linearGradient>
<linearGradient id="paint11_linear" x1="116.01" y1="106.388" x2="110.026" y2="106.388" gradientUnits="userSpaceOnUse">
<stop stop-color="#E3E8F0"/>
<stop offset="1" stop-color="#CCD3DE"/>
</linearGradient>
<linearGradient id="paint12_linear" x1="118.49" y1="120.634" x2="107.394" y2="120.634" gradientUnits="userSpaceOnUse">
<stop stop-color="#E3E8F0"/>
<stop offset="1" stop-color="#CCD3DE"/>
</linearGradient>
<linearGradient id="paint13_linear" x1="118.49" y1="127.281" x2="107.394" y2="127.281" gradientUnits="userSpaceOnUse">
<stop stop-color="#E3E8F0"/>
<stop offset="1" stop-color="#CCD3DE"/>
</linearGradient>
<linearGradient id="paint14_linear" x1="118.49" y1="133.93" x2="107.394" y2="133.93" gradientUnits="userSpaceOnUse">
<stop stop-color="#E3E8F0"/>
<stop offset="1" stop-color="#CCD3DE"/>
</linearGradient>
<linearGradient id="paint15_linear" x1="118.49" y1="140.736" x2="107.394" y2="140.736" gradientUnits="userSpaceOnUse">
<stop stop-color="#E3E8F0"/>
<stop offset="1" stop-color="#CCD3DE"/>
</linearGradient>
<linearGradient id="paint16_linear" x1="118.49" y1="147.384" x2="107.394" y2="147.384" gradientUnits="userSpaceOnUse">
<stop stop-color="#E3E8F0"/>
<stop offset="1" stop-color="#CCD3DE"/>
</linearGradient>
<linearGradient id="paint17_linear" x1="118.49" y1="154.031" x2="107.394" y2="154.031" gradientUnits="userSpaceOnUse">
<stop stop-color="#E3E8F0"/>
<stop offset="1" stop-color="#CCD3DE"/>
</linearGradient>
<linearGradient id="paint18_linear" x1="116.733" y1="160.679" x2="109.453" y2="160.679" gradientUnits="userSpaceOnUse">
<stop stop-color="#E3E8F0"/>
<stop offset="1" stop-color="#CCD3DE"/>
</linearGradient>
<linearGradient id="paint19_linear" x1="173.98" y1="170.651" x2="147.354" y2="170.651" gradientUnits="userSpaceOnUse">
<stop stop-color="#E3E8F0"/>
<stop offset="1" stop-color="#CCD3DE"/>
</linearGradient>
<linearGradient id="paint20_linear" x1="158.285" y1="176.982" x2="143.825" y2="176.982" gradientUnits="userSpaceOnUse">
<stop stop-color="#E3E8F0"/>
<stop offset="1" stop-color="#CCD3DE"/>
</linearGradient>
<linearGradient id="paint21_linear" x1="224.789" y1="170.651" x2="198.163" y2="170.651" gradientUnits="userSpaceOnUse">
<stop stop-color="#E3E8F0"/>
<stop offset="1" stop-color="#CCD3DE"/>
</linearGradient>
<linearGradient id="paint22_linear" x1="209.094" y1="176.982" x2="194.634" y2="176.982" gradientUnits="userSpaceOnUse">
<stop stop-color="#E3E8F0"/>
<stop offset="1" stop-color="#CCD3DE"/>
</linearGradient>
<linearGradient id="paint23_linear" x1="129.899" y1="221.461" x2="122.723" y2="221.461" gradientUnits="userSpaceOnUse">
<stop stop-color="#E3E8F0"/>
<stop offset="1" stop-color="#CCD3DE"/>
</linearGradient>
<linearGradient id="paint24_linear" x1="132.459" y1="232.541" x2="120.093" y2="232.541" gradientUnits="userSpaceOnUse">
<stop stop-color="#E3E8F0"/>
<stop offset="1" stop-color="#CCD3DE"/>
</linearGradient>
<linearGradient id="paint25_linear" x1="246.996" y1="221.461" x2="239.821" y2="221.461" gradientUnits="userSpaceOnUse">
<stop stop-color="#E3E8F0"/>
<stop offset="1" stop-color="#CCD3DE"/>
</linearGradient>
<linearGradient id="paint26_linear" x1="249.557" y1="232.541" x2="237.191" y2="232.541" gradientUnits="userSpaceOnUse">
<stop stop-color="#E3E8F0"/>
<stop offset="1" stop-color="#CCD3DE"/>
</linearGradient>
</defs>
</svg>
