<svg width="48" height="48" viewBox="0 0 48 48" fill="none" xmlns="http://www.w3.org/2000/svg">
<circle cx="24" cy="24" r="23" fill="#2B2E38" stroke="#2B2E38" stroke-width="2"/>
<path d="M32.947 18.0602L24.2803 14.0602C24.1926 14.0196 24.097 13.9985 24.0003 13.9985C23.9036 13.9985 23.8081 14.0196 23.7203 14.0602L15.0537 18.0602C14.9379 18.1137 14.84 18.1994 14.7715 18.3069C14.7029 18.4144 14.6667 18.5393 14.667 18.6669V30.0002C14.6667 30.1277 14.7029 30.2526 14.7715 30.3602C14.84 30.4677 14.9379 30.5533 15.0537 30.6069L23.7203 34.6069C23.8081 34.6475 23.9036 34.6685 24.0003 34.6685C24.097 34.6685 24.1926 34.6475 24.2803 34.6069L32.947 30.6069C33.0627 30.5533 33.1606 30.4677 33.2292 30.3602C33.2977 30.2526 33.334 30.1277 33.3337 30.0002V18.6669C33.334 18.5393 33.2977 18.4144 33.2292 18.3069C33.1606 18.1994 33.0627 18.1137 32.947 18.0602ZM24.0003 15.4002L31.0737 18.6669L24.0003 21.9335L16.927 18.6669L24.0003 15.4002ZM16.0003 19.7069L23.3337 23.0935V32.9602L16.0003 29.5735V19.7069ZM24.667 32.9602V23.0935L32.0003 19.7069V29.5735L24.667 32.9602Z" fill="#84818A"/>
</svg>
