<svg width="48" height="48" viewBox="0 0 48 48" fill="none" xmlns="http://www.w3.org/2000/svg">
<circle cx="24" cy="24" r="23" stroke="#EBEAED" stroke-width="2"/>
<path d="M32.9465 18.0602L24.2798 14.0602C24.1921 14.0196 24.0965 13.9985 23.9998 13.9985C23.9031 13.9985 23.8076 14.0196 23.7198 14.0602L15.0532 18.0602C14.9375 18.1137 14.8395 18.1994 14.771 18.3069C14.7024 18.4144 14.6662 18.5393 14.6665 18.6669V30.0002C14.6662 30.1277 14.7024 30.2526 14.771 30.3602C14.8395 30.4677 14.9375 30.5533 15.0532 30.6069L23.7198 34.6069C23.8076 34.6475 23.9031 34.6685 23.9998 34.6685C24.0965 34.6685 24.1921 34.6475 24.2798 34.6069L32.9465 30.6069C33.0622 30.5533 33.1602 30.4677 33.2287 30.3602C33.2972 30.2526 33.3335 30.1277 33.3332 30.0002V18.6669C33.3335 18.5393 33.2972 18.4144 33.2287 18.3069C33.1602 18.1994 33.0622 18.1137 32.9465 18.0602ZM23.9998 15.4002L31.0732 18.6669L23.9998 21.9335L16.9265 18.6669L23.9998 15.4002ZM15.9998 19.7069L23.3332 23.0935V32.9602L15.9998 29.5735V19.7069ZM24.6665 32.9602V23.0935L31.9998 19.7069V29.5735L24.6665 32.9602Z" fill="#1F222C"/>
</svg>
