<svg width="38" height="38" viewBox="0 0 38 38" fill="none" xmlns="http://www.w3.org/2000/svg">
<rect width="38" height="38" rx="6" fill="#5546FF"/>
<path d="M25.291 18.164C24.9118 17.3106 24.3606 16.5447 23.6719 15.914L23.1035 15.3926C23.0842 15.3753 23.061 15.3631 23.0359 15.357C23.0107 15.3508 22.9845 15.3509 22.9594 15.3573C22.9344 15.3637 22.9112 15.3761 22.8921 15.3935C22.8729 15.4108 22.8584 15.4327 22.8496 15.457L22.5957 16.1855C22.4375 16.6426 22.1465 17.1094 21.7344 17.5683C21.707 17.5976 21.6758 17.6054 21.6543 17.6074C21.6328 17.6094 21.5996 17.6054 21.5703 17.5781C21.543 17.5547 21.5293 17.5195 21.5312 17.4844C21.6035 16.3086 21.252 14.9824 20.4824 13.539C19.8457 12.3398 18.9609 11.4043 17.8555 10.7519L17.0488 10.2773C16.9434 10.2148 16.8086 10.2969 16.8145 10.4199L16.8574 11.3574C16.8867 11.998 16.8125 12.5644 16.6367 13.0351C16.4219 13.6113 16.1133 14.1465 15.7188 14.6269C15.4442 14.9608 15.133 15.2629 14.791 15.5273C13.9674 16.1605 13.2977 16.9717 12.832 17.9004C12.3675 18.8371 12.1256 19.8685 12.125 20.914C12.125 21.8359 12.3066 22.7285 12.666 23.5703C13.013 24.3808 13.5138 25.1163 14.1406 25.7363C14.7734 26.3613 15.5078 26.8535 16.3262 27.1953C17.1738 27.5508 18.0723 27.7304 19 27.7304C19.9277 27.7304 20.8262 27.5508 21.6738 27.1972C22.4902 26.8574 23.2325 26.3619 23.8594 25.7383C24.4922 25.1133 24.9883 24.3828 25.334 23.5722C25.6928 22.7327 25.8769 21.829 25.875 20.916C25.875 19.9629 25.6797 19.0371 25.291 18.164Z" fill="white"/>
</svg>
