<svg width="24" height="24" viewBox="0 0 24 24" fill="none" xmlns="http://www.w3.org/2000/svg">
<path fill-rule="evenodd" clip-rule="evenodd" d="M4.51745 8.63787C4.51745 7.85112 5.12589 7.24193 6.0422 7.24193C6.95851 7.24193 8.83848 7.22084 8.83848 7.22084C8.83848 7.22084 8.80979 6.56553 8.80979 5.73209C8.80979 4.89884 9.55548 4.32959 10.4495 4.32959C11.3437 4.32959 15.7732 4.36718 16.2078 4.36718C16.6424 4.36718 16.995 4.52834 17.4822 4.89875C17.9694 5.26934 18.7059 5.88875 19.0705 6.30143C19.4352 6.71412 19.5892 6.95506 19.5892 7.29556C19.5892 7.63615 19.5892 14.5008 19.5835 15.2962C19.578 16.0917 18.8451 16.6797 17.9772 16.6913C17.1094 16.7029 15.2458 16.7029 15.2458 16.7029C15.2458 16.7029 15.2895 17.2912 15.2895 18.1232C15.2895 18.9552 14.5296 19.6055 13.666 19.6285C12.8026 19.6514 6.92129 19.5825 6.08317 19.6055C5.24504 19.6285 4.49176 18.9686 4.49176 18.1597C4.49176 17.3508 4.51745 9.42453 4.51745 8.63787ZM6.08626 9.00781L5.97826 17.7128C5.97762 17.7619 5.98673 17.8107 6.00509 17.8563C6.02345 17.9019 6.05067 17.9434 6.08519 17.9784C6.11971 18.0134 6.16083 18.0412 6.20617 18.0601C6.25152 18.0791 6.30017 18.0889 6.34932 18.0889L13.2787 18.1095C13.3275 18.1101 13.376 18.1008 13.4211 18.0822C13.4663 18.0636 13.5072 18.036 13.5415 18.0012C13.5757 17.9664 13.6025 17.925 13.6204 17.8795C13.6382 17.834 13.6467 17.7854 13.6452 17.7366L13.6248 16.903C13.6244 16.8783 13.6191 16.854 13.6092 16.8314C13.5993 16.8088 13.585 16.7884 13.5671 16.7714C13.5493 16.7543 13.5282 16.741 13.5052 16.7322C13.4822 16.7233 13.4576 16.7191 13.433 16.7199C13.433 16.7199 11.383 16.7799 10.4548 16.7473C9.52651 16.7147 8.89182 16.1092 8.89154 15.2927C8.89126 14.4762 8.89182 8.81065 8.89182 8.81065C8.89187 8.78599 8.88703 8.76156 8.87758 8.73879C8.86812 8.71601 8.85424 8.69533 8.83675 8.67796C8.81925 8.66058 8.79847 8.64685 8.77563 8.63755C8.75279 8.62826 8.72833 8.62359 8.70367 8.62381L6.46576 8.6315C6.36588 8.63219 6.27023 8.67197 6.19931 8.7423C6.12838 8.81263 6.0878 8.90793 6.08626 9.00781ZM16.0714 5.70237C15.9152 5.56643 15.7886 5.62362 15.7886 5.831V7.44865C15.7886 7.55234 15.8724 7.63681 15.9759 7.63737L17.9322 7.64684C18.1389 7.64787 18.1798 7.53846 18.0237 7.40253L16.0714 5.70237ZM10.6708 5.78178C10.6461 5.78156 10.6217 5.7862 10.5988 5.79545C10.5759 5.8047 10.5551 5.81838 10.5375 5.83569C10.5199 5.853 10.5059 5.87361 10.4963 5.89634C10.4867 5.91907 10.4816 5.94347 10.4814 5.96815L10.4228 14.9954C10.4224 15.0323 10.4294 15.0688 10.4432 15.103C10.4571 15.1371 10.4776 15.1681 10.5036 15.1943C10.5296 15.2204 10.5605 15.2411 10.5945 15.2552C10.6286 15.2693 10.6651 15.2765 10.7019 15.2764L17.7519 15.259C17.8022 15.2587 17.8503 15.2389 17.8861 15.2036C17.9219 15.1684 17.9425 15.1206 17.9436 15.0703L18.0624 9.21837C18.0631 9.19387 18.0588 9.16948 18.0499 9.14665C18.041 9.12383 18.0275 9.10303 18.0104 9.08551C17.9932 9.06798 17.9727 9.05408 17.9501 9.04463C17.9275 9.03518 17.9032 9.03037 17.8787 9.0305C17.8787 9.0305 15.4251 9.03443 14.9928 9.03443C14.5605 9.03443 14.2864 8.82612 14.2864 8.42675C14.2864 8.02737 14.2781 5.99253 14.2781 5.99253C14.2778 5.94251 14.2578 5.89465 14.2224 5.85926C14.1871 5.82386 14.1392 5.80378 14.0892 5.80334L10.6707 5.78178H10.6708Z" fill="#84818A" stroke="#84818A" stroke-width="0.09375"/>
</svg>
