<svg width="48" height="48" viewBox="0 0 48 48" fill="none" xmlns="http://www.w3.org/2000/svg">
<circle cx="24" cy="24" r="24" fill="#2B2E38"/>
<circle cx="39" cy="39" r="7" fill="#FF4242"/>
<path d="M38.9998 42.3332C40.8408 42.3332 42.3332 40.8408 42.3332 38.9998C42.3332 37.1589 40.8408 35.6665 38.9998 35.6665C37.1589 35.6665 35.6665 37.1589 35.6665 38.9998C35.6665 40.8408 37.1589 42.3332 38.9998 42.3332Z" stroke="#2B2E38" stroke-width="0.666667"/>
<path d="M38.9995 40.4997V40.6663M38.9995 37.333V39.333V37.333Z" stroke="#2B2E38" stroke-width="0.666667" stroke-linecap="round"/>
<path d="M27.5999 17.2898C26.4999 17.1898 25.5299 17.9998 25.4299 19.1098L25.1799 21.9998H27.9999V23.9998H24.9999L24.5599 29.0698C24.3699 31.2698 22.4299 32.8998 20.2299 32.6998C18.9199 32.5898 17.8199 31.8598 17.1699 30.8298L18.6699 29.3298C18.9099 30.0698 19.5699 30.6398 20.3999 30.7098C21.4999 30.8098 22.4699 29.9998 22.5699 28.8898L22.9999 23.9998H19.9999V21.9998H23.1699L23.4399 18.9298C23.6299 16.7298 25.5699 15.0998 27.7699 15.2998C29.0799 15.4098 30.1799 16.1398 30.8299 17.1698L29.3299 18.6698C29.0899 17.9298 28.4299 17.3598 27.5999 17.2898Z" fill="#84818A"/>
</svg>
