<svg width="48" height="48" viewBox="0 0 48 48" fill="none" xmlns="http://www.w3.org/2000/svg">
<circle cx="24" cy="24" r="23" stroke="#EBEAED" stroke-width="2"/>
<circle cx="39" cy="39" r="7" fill="#20C9AC"/>
<path d="M40.8562 37.1063C40.9442 37.0225 41.0614 36.9761 41.1829 36.9771C41.3045 36.978 41.4209 37.0261 41.5077 37.1112C41.5945 37.1964 41.6448 37.3119 41.648 37.4334C41.6512 37.5549 41.6071 37.6729 41.5249 37.7626L39.0312 40.8813C38.9883 40.9275 38.9365 40.9646 38.879 40.9903C38.8215 41.016 38.7593 41.0299 38.6963 41.031C38.6333 41.0322 38.5707 41.0207 38.5123 40.9971C38.4538 40.9735 38.4007 40.9384 38.3562 40.8938L36.7024 39.2401C36.6564 39.1971 36.6194 39.1454 36.5938 39.0879C36.5682 39.0304 36.5544 38.9683 36.5533 38.9054C36.5522 38.8424 36.5638 38.7799 36.5873 38.7216C36.6109 38.6632 36.646 38.6102 36.6905 38.5657C36.735 38.5211 36.788 38.4861 36.8464 38.4625C36.9048 38.4389 36.9673 38.4273 37.0302 38.4284C37.0932 38.4295 37.1553 38.4433 37.2128 38.4689C37.2703 38.4946 37.322 38.5315 37.3649 38.5776L38.6737 39.8857L40.8443 37.1201C40.8482 37.1152 40.8524 37.1107 40.8568 37.1063H40.8562Z" fill="white"/>
<path d="M34.3532 24.5068L29.7332 22.3802V16.2868C29.7311 16.159 29.6923 16.0345 29.6214 15.9281C29.5504 15.8217 29.4504 15.738 29.3332 15.6868L24.3332 13.3868C24.2455 13.3462 24.1499 13.3252 24.0532 13.3252C23.9565 13.3252 23.861 13.3462 23.7732 13.3868L18.7732 15.6868C18.6575 15.7404 18.5596 15.826 18.491 15.9335C18.4225 16.0411 18.3863 16.166 18.3866 16.2935V22.3868L13.7866 24.5068C13.6709 24.5604 13.5729 24.646 13.5044 24.7535C13.4358 24.8611 13.3996 24.986 13.3999 25.1135V31.6335C13.3996 31.761 13.4358 31.886 13.5044 31.9935C13.5729 32.101 13.6709 32.1866 13.7866 32.2402L18.7866 34.5402C18.8743 34.5808 18.9699 34.6018 19.0666 34.6018C19.1633 34.6018 19.2588 34.5808 19.3466 34.5402L24.0666 32.3668L28.7866 34.5402C28.8743 34.5808 28.9699 34.6018 29.0666 34.6018C29.1633 34.6018 29.2588 34.5808 29.3466 34.5402L34.3466 32.2402C34.4623 32.1866 34.5602 32.101 34.6288 31.9935C34.6973 31.886 34.7335 31.761 34.7332 31.6335V25.1135C34.7341 24.9867 34.6989 24.8623 34.6316 24.7549C34.5643 24.6474 34.4677 24.5614 34.3532 24.5068ZM32.4799 25.1135L29.0732 26.6668L25.6666 25.1135L29.0732 23.5468L32.4799 25.1135ZM24.0666 14.7202L27.4732 16.2868L24.0666 17.8535L20.6666 16.2868L24.0666 14.7202ZM19.0666 23.5402L22.4732 25.1068L19.0666 26.6668L15.6599 25.1135L19.0666 23.5402ZM23.3999 31.2002L19.0666 33.2002L14.7332 31.2002V26.1535L18.7866 28.0002C18.8725 28.0388 18.9657 28.0588 19.0599 28.0588C19.1541 28.0588 19.2473 28.0388 19.3332 28.0002L23.3866 26.1335L23.3999 31.2002ZM19.7332 22.3802V17.3335L23.7866 19.2002C23.8743 19.2408 23.9699 19.2618 24.0666 19.2618C24.1633 19.2618 24.2588 19.2408 24.3466 19.2002L28.3999 17.3335V22.3868L24.0666 24.3868L19.7332 22.3802ZM33.4066 31.2068L29.0732 33.2068L24.7332 31.2068V26.1468L28.7932 28.0002C28.8783 28.0378 28.9702 28.0573 29.0632 28.0573C29.1562 28.0573 29.2482 28.0378 29.3332 28.0002L33.3866 26.1335L33.4066 31.2068Z" fill="#1F222C"/>
</svg>
