<svg width="48" height="48" viewBox="0 0 48 48" fill="none" xmlns="http://www.w3.org/2000/svg">
<circle cx="24" cy="24" r="24" fill="#2B2E38"/>
<path d="M34.3537 24.5068L29.7337 22.3802V16.2868C29.7316 16.159 29.6928 16.0345 29.6219 15.9281C29.5509 15.8217 29.4509 15.738 29.3337 15.6868L24.3337 13.3868C24.246 13.3462 24.1504 13.3252 24.0537 13.3252C23.957 13.3252 23.8615 13.3462 23.7737 13.3868L18.7737 15.6868C18.658 15.7404 18.5601 15.826 18.4915 15.9335C18.423 16.0411 18.3867 16.166 18.3871 16.2935V22.3868L13.7871 24.5068C13.6713 24.5604 13.5734 24.646 13.5049 24.7535C13.4363 24.8611 13.4001 24.986 13.4004 25.1135V31.6335C13.4001 31.761 13.4363 31.886 13.5049 31.9935C13.5734 32.101 13.6713 32.1866 13.7871 32.2402L18.7871 34.5402C18.8748 34.5808 18.9704 34.6018 19.0671 34.6018C19.1638 34.6018 19.2593 34.5808 19.3471 34.5402L24.0671 32.3668L28.7871 34.5402C28.8748 34.5808 28.9704 34.6018 29.0671 34.6018C29.1638 34.6018 29.2593 34.5808 29.3471 34.5402L34.3471 32.2402C34.4628 32.1866 34.5607 32.101 34.6292 31.9935C34.6978 31.886 34.734 31.761 34.7337 31.6335V25.1135C34.7346 24.9867 34.6994 24.8623 34.6321 24.7549C34.5648 24.6474 34.4682 24.5614 34.3537 24.5068V24.5068ZM32.4804 25.1135L29.0737 26.6668L25.6671 25.1135L29.0737 23.5468L32.4804 25.1135ZM24.0671 14.7202L27.4737 16.2868L24.0671 17.8535L20.6671 16.2868L24.0671 14.7202ZM19.0671 23.5402L22.4737 25.1068L19.0671 26.6668L15.6604 25.1135L19.0671 23.5402ZM23.4004 31.2002L19.0671 33.2002L14.7337 31.2002V26.1535L18.7871 28.0002C18.873 28.0388 18.9662 28.0588 19.0604 28.0588C19.1546 28.0588 19.2478 28.0388 19.3337 28.0002L23.3871 26.1335L23.4004 31.2002ZM19.7337 22.3802V17.3335L23.7871 19.2002C23.8748 19.2408 23.9704 19.2618 24.0671 19.2618C24.1638 19.2618 24.2593 19.2408 24.3471 19.2002L28.4004 17.3335V22.3868L24.0671 24.3868L19.7337 22.3802ZM33.4071 31.2068L29.0737 33.2068L24.7337 31.2068V26.1468L28.7937 28.0002C28.8788 28.0378 28.9707 28.0573 29.0637 28.0573C29.1567 28.0573 29.2487 28.0378 29.3337 28.0002L33.3871 26.1335L33.4071 31.2068Z" fill="#84818A"/>
</svg>
