<svg width="48" height="48" viewBox="0 0 48 48" fill="none" xmlns="http://www.w3.org/2000/svg">
<circle cx="24" cy="24" r="23" fill="white" stroke="#EBEAED" stroke-width="2"/>
<path d="M34.3532 24.5068L29.7332 22.3802V16.2868C29.7311 16.159 29.6923 16.0345 29.6214 15.9281C29.5504 15.8217 29.4504 15.738 29.3332 15.6868L24.3332 13.3868C24.2455 13.3462 24.1499 13.3252 24.0532 13.3252C23.9565 13.3252 23.861 13.3462 23.7732 13.3868L18.7732 15.6868C18.6575 15.7404 18.5596 15.826 18.491 15.9335C18.4225 16.0411 18.3863 16.166 18.3866 16.2935V22.3868L13.7866 24.5068C13.6709 24.5604 13.5729 24.646 13.5044 24.7535C13.4358 24.8611 13.3996 24.986 13.3999 25.1135V31.6335C13.3996 31.761 13.4358 31.886 13.5044 31.9935C13.5729 32.101 13.6709 32.1866 13.7866 32.2402L18.7866 34.5402C18.8743 34.5808 18.9699 34.6018 19.0666 34.6018C19.1633 34.6018 19.2588 34.5808 19.3466 34.5402L24.0666 32.3668L28.7866 34.5402C28.8743 34.5808 28.9699 34.6018 29.0666 34.6018C29.1633 34.6018 29.2588 34.5808 29.3466 34.5402L34.3466 32.2402C34.4623 32.1866 34.5602 32.101 34.6288 31.9935C34.6973 31.886 34.7335 31.761 34.7332 31.6335V25.1135C34.7341 24.9867 34.6989 24.8623 34.6316 24.7549C34.5643 24.6474 34.4677 24.5614 34.3532 24.5068ZM32.4799 25.1135L29.0732 26.6668L25.6666 25.1135L29.0732 23.5468L32.4799 25.1135ZM24.0666 14.7202L27.4732 16.2868L24.0666 17.8535L20.6666 16.2868L24.0666 14.7202ZM19.0666 23.5402L22.4732 25.1068L19.0666 26.6668L15.6599 25.1135L19.0666 23.5402ZM23.3999 31.2002L19.0666 33.2002L14.7332 31.2002V26.1535L18.7866 28.0002C18.8725 28.0388 18.9657 28.0588 19.0599 28.0588C19.1541 28.0588 19.2473 28.0388 19.3332 28.0002L23.3866 26.1335L23.3999 31.2002ZM19.7332 22.3802V17.3335L23.7866 19.2002C23.8743 19.2408 23.9699 19.2618 24.0666 19.2618C24.1633 19.2618 24.2588 19.2408 24.3466 19.2002L28.3999 17.3335V22.3868L24.0666 24.3868L19.7332 22.3802ZM33.4066 31.2068L29.0732 33.2068L24.7332 31.2068V26.1468L28.7932 28.0002C28.8783 28.0378 28.9702 28.0573 29.0632 28.0573C29.1562 28.0573 29.2482 28.0378 29.3332 28.0002L33.3866 26.1335L33.4066 31.2068Z" fill="#1F222C"/>
</svg>
