<svg width="112" height="18" viewBox="0 0 112 18" fill="none" xmlns="http://www.w3.org/2000/svg">
<path d="M3.16684 14H4.65484L7.54684 5.36H6.43684L3.89884 12.866L1.38484 5.36H0.274844L3.16684 14ZM8.335 6.374H9.403V5.27H8.335V6.374ZM8.335 14H9.403V7.52H8.335V14ZM14.0113 14.18C14.6393 14.18 15.2053 14.024 15.7093 13.712C16.2133 13.396 16.5933 12.952 16.8493 12.38L15.8233 12.026C15.4513 12.786 14.8313 13.166 13.9633 13.166C13.3673 13.166 12.8993 12.984 12.5593 12.62C12.2233 12.252 12.0333 11.732 11.9893 11.06H16.9573C16.9893 10.292 16.8893 9.63 16.6573 9.074C16.4293 8.518 16.0853 8.09 15.6253 7.79C15.1693 7.49 14.6153 7.34 13.9633 7.34C13.3353 7.34 12.7873 7.482 12.3193 7.766C11.8513 8.046 11.4873 8.446 11.2273 8.966C10.9713 9.482 10.8433 10.094 10.8433 10.802C10.8433 11.478 10.9733 12.07 11.2333 12.578C11.4973 13.082 11.8673 13.476 12.3433 13.76C12.8193 14.04 13.3753 14.18 14.0113 14.18ZM13.9993 8.3C15.0993 8.3 15.7153 8.934 15.8473 10.202H12.0073C12.0833 9.586 12.2893 9.116 12.6253 8.792C12.9613 8.464 13.4193 8.3 13.9993 8.3ZM19.4388 14H20.3268L21.8928 9.074L23.4588 14H24.3468L26.3268 7.52H25.2708L23.8188 12.26L22.3668 7.52H21.4248L19.9668 12.26L18.5208 7.52L17.4588 7.514L19.4388 14ZM29.8067 14H30.8807V9.884C30.8807 9.408 31.0087 9.026 31.2647 8.738C31.5247 8.45 31.8667 8.306 32.2907 8.306C32.7147 8.306 33.0547 8.448 33.3107 8.732C33.5667 9.016 33.6947 9.404 33.6947 9.896L33.6887 14H34.7507L34.7567 9.884C34.7567 9.52 34.8247 9.222 34.9607 8.99C35.0967 8.758 35.2727 8.586 35.4887 8.474C35.7047 8.362 35.9327 8.306 36.1727 8.306C36.5807 8.306 36.9147 8.444 37.1747 8.72C37.4347 8.992 37.5647 9.37 37.5647 9.854L37.5587 14H38.6267L38.6327 9.62C38.6327 8.928 38.4387 8.378 38.0507 7.97C37.6627 7.558 37.1307 7.352 36.4547 7.352C36.0267 7.352 35.6407 7.448 35.2967 7.64C34.9527 7.828 34.6847 8.088 34.4927 8.42C34.3167 8.08 34.0667 7.818 33.7427 7.634C33.4187 7.446 33.0387 7.352 32.6027 7.352C32.2147 7.352 31.8607 7.43 31.5407 7.586C31.2247 7.738 30.9647 7.946 30.7607 8.21V7.52H29.8067V14ZM40.3155 6.374H41.3835V5.27H40.3155V6.374ZM40.3155 14H41.3835V7.52H40.3155V14ZM43.1778 14H44.2578V10.586C44.2578 9.834 44.4198 9.276 44.7438 8.912C45.0718 8.548 45.5038 8.366 46.0398 8.366C46.4958 8.366 46.8518 8.48 47.1078 8.708C47.3638 8.936 47.5418 9.232 47.6418 9.596C47.7458 9.96 47.7978 10.346 47.7978 10.754V14H48.8778V10.418C48.8778 10.11 48.8398 9.78 48.7638 9.428C48.6918 9.072 48.5598 8.738 48.3678 8.426C48.1798 8.11 47.9178 7.852 47.5818 7.652C47.2498 7.452 46.8218 7.352 46.2978 7.352C45.3538 7.352 44.6338 7.686 44.1378 8.354V7.52H43.1778V14ZM50.5577 6.374H51.6257V5.27H50.5577V6.374ZM50.5577 14H51.6257V7.52H50.5577V14ZM53.4199 14H54.4999V10.586C54.4999 9.834 54.6619 9.276 54.9859 8.912C55.3139 8.548 55.7459 8.366 56.2819 8.366C56.7379 8.366 57.0939 8.48 57.3499 8.708C57.6059 8.936 57.7839 9.232 57.8839 9.596C57.9879 9.96 58.0399 10.346 58.0399 10.754V14H59.1199V10.418C59.1199 10.11 59.0819 9.78 59.0059 9.428C58.9339 9.072 58.8019 8.738 58.6099 8.426C58.4219 8.11 58.1599 7.852 57.8239 7.652C57.4919 7.452 57.0639 7.352 56.5399 7.352C55.5959 7.352 54.8759 7.686 54.3799 8.354V7.52H53.4199V14ZM63.2238 14.18C63.6238 14.18 63.9818 14.112 64.2978 13.976C64.6178 13.84 64.8938 13.65 65.1258 13.406V14.03C65.1378 15.362 64.5318 16.028 63.3078 16.028C62.9918 16.028 62.6878 15.956 62.3958 15.812C62.1038 15.668 61.8778 15.438 61.7178 15.122L60.7398 15.638C61.0118 16.122 61.3798 16.48 61.8438 16.712C62.3078 16.944 62.7938 17.06 63.3018 17.06C64.0778 17.06 64.7098 16.894 65.1978 16.562C65.6898 16.234 65.9978 15.726 66.1218 15.038C66.1538 14.878 66.1738 14.716 66.1818 14.552C66.1938 14.392 66.1998 14.222 66.1998 14.042V7.52H65.2518V8.246C65.0158 7.962 64.7278 7.74 64.3878 7.58C64.0478 7.42 63.6578 7.34 63.2178 7.34C62.6178 7.34 62.1018 7.49 61.6698 7.79C61.2378 8.086 60.9038 8.492 60.6678 9.008C60.4358 9.524 60.3198 10.106 60.3198 10.754C60.3198 11.402 60.4358 11.984 60.6678 12.5C60.8998 13.016 61.2318 13.426 61.6638 13.73C62.0998 14.03 62.6198 14.18 63.2238 14.18ZM63.3558 13.202C62.9318 13.202 62.5778 13.094 62.2938 12.878C62.0138 12.662 61.8038 12.37 61.6638 12.002C61.5238 11.63 61.4538 11.214 61.4538 10.754C61.4538 10.298 61.5218 9.886 61.6578 9.518C61.7978 9.15 62.0098 8.858 62.2938 8.642C62.5818 8.426 62.9458 8.318 63.3858 8.318C64.0178 8.318 64.4858 8.546 64.7898 9.002C65.0978 9.454 65.2518 10.038 65.2518 10.754C65.2518 11.466 65.0998 12.052 64.7958 12.512C64.4918 12.972 64.0118 13.202 63.3558 13.202ZM70.3975 6.374H71.4655V5.27H70.3975V6.374ZM70.3975 14H71.4655V7.52H70.3975V14ZM73.2598 14H74.3398V10.586C74.3398 9.834 74.5018 9.276 74.8258 8.912C75.1538 8.548 75.5858 8.366 76.1218 8.366C76.5778 8.366 76.9338 8.48 77.1898 8.708C77.4458 8.936 77.6238 9.232 77.7238 9.596C77.8278 9.96 77.8798 10.346 77.8798 10.754V14H78.9598V10.418C78.9598 10.11 78.9218 9.78 78.8458 9.428C78.7738 9.072 78.6418 8.738 78.4498 8.426C78.2618 8.11 77.9998 7.852 77.6638 7.652C77.3318 7.452 76.9038 7.352 76.3798 7.352C75.4358 7.352 74.7158 7.686 74.2198 8.354V7.52H73.2598V14ZM81.1377 14H82.2057V8.402H83.9097V7.52H82.2057V6.998C82.2057 6.378 82.5197 6.068 83.1477 6.068H83.9097V5.18H83.0877C82.8437 5.18 82.5817 5.204 82.3017 5.252C82.0217 5.296 81.7697 5.44 81.5457 5.684C81.3537 5.892 81.2377 6.13 81.1977 6.398C81.1577 6.662 81.1377 6.918 81.1377 7.166V7.52H80.0397V8.402H81.1377V14ZM87.393 14.18C88.037 14.18 88.591 14.036 89.055 13.748C89.523 13.46 89.883 13.058 90.135 12.542C90.391 12.026 90.519 11.43 90.519 10.754C90.519 10.086 90.393 9.496 90.141 8.984C89.893 8.468 89.535 8.066 89.067 7.778C88.599 7.486 88.041 7.34 87.393 7.34C86.761 7.34 86.211 7.484 85.743 7.772C85.275 8.056 84.913 8.454 84.657 8.966C84.401 9.478 84.273 10.074 84.273 10.754C84.273 11.422 84.397 12.014 84.645 12.53C84.897 13.046 85.257 13.45 85.725 13.742C86.193 14.034 86.749 14.18 87.393 14.18ZM87.393 13.166C86.741 13.166 86.247 12.948 85.911 12.512C85.575 12.072 85.407 11.486 85.407 10.754C85.407 10.046 85.569 9.47 85.893 9.026C86.217 8.578 86.717 8.354 87.393 8.354C88.057 8.354 88.555 8.572 88.887 9.008C89.219 9.444 89.385 10.026 89.385 10.754C89.385 11.466 89.219 12.046 88.887 12.494C88.559 12.942 88.061 13.166 87.393 13.166Z" fill="#FF7042"/>
<path d="M98.6665 9H109.333" stroke="#FF7042" stroke-width="2" stroke-linecap="round" stroke-linejoin="round"/>
<path d="M104.667 4.33301L109.333 8.99967L104.667 13.6663" stroke="#FF7042" stroke-width="2" stroke-linecap="round" stroke-linejoin="round"/>
</svg>
