<svg width="38" height="38" viewBox="0 0 38 38" fill="none" xmlns="http://www.w3.org/2000/svg">
<rect width="38" height="38" rx="6" fill="#5546FF"/>
<path d="M19 29C22.976 29 27 27.626 27 25V13C27 10.374 22.976 9 19 9C15.024 9 11 10.374 11 13V25C11 27.626 15.024 29 19 29ZM19 27C15.278 27 13 25.705 13 25V23.732C14.541 24.57 16.777 25 19 25C21.223 25 23.459 24.57 25 23.732V25C25 25.705 22.722 27 19 27ZM19 11C22.722 11 25 12.295 25 13C25 13.705 22.722 15 19 15C15.278 15 13 13.705 13 13C13 12.295 15.278 11 19 11ZM13 15.732C14.541 16.57 16.777 17 19 17C21.223 17 23.459 16.57 25 15.732V17C25 17.705 22.722 19 19 19C15.278 19 13 17.705 13 17V15.732ZM13 19.732C14.541 20.57 16.777 21 19 21C21.223 21 23.459 20.57 25 19.732V21C25 21.705 22.722 23 19 23C15.278 23 13 21.705 13 21V19.732Z" fill="white"/>
</svg>
