<svg width="530" height="459" viewBox="0 0 530 459" fill="none" xmlns="http://www.w3.org/2000/svg">
<g clip-path="url(#clip0_1865_19788)">
<path d="M163.346 -0.0585938L167.056 14.7549L177.683 3.78391L173.496 18.4649L188.177 14.2779L177.206 24.8779L192.019 28.5879L177.206 32.2979L188.177 42.9244L173.496 38.7374L177.683 53.4184L167.056 42.4474L163.346 57.2609L159.636 42.4474L149.01 53.4184L153.223 38.7374L138.516 42.9244L149.513 32.2979L134.7 28.5879L149.513 24.8779L138.516 14.2779L153.223 18.4649L149.01 3.78391L159.636 14.7549L163.346 -0.0585938Z" fill="white" stroke="#190F3E" stroke-width="1.325" stroke-miterlimit="10" stroke-linejoin="round"/>
<path d="M141.934 272.043C173.752 272.043 199.545 266.538 199.545 259.747C199.545 252.956 173.752 247.451 141.934 247.451C110.117 247.451 84.3232 252.956 84.3232 259.747C84.3232 266.538 110.117 272.043 141.934 272.043Z" stroke="#190F3E" stroke-width="1.325" stroke-miterlimit="10"/>
<path d="M141.934 284.338C173.752 284.338 199.545 278.833 199.545 272.042C199.545 265.251 173.752 259.746 141.934 259.746C110.117 259.746 84.3232 265.251 84.3232 272.042C84.3232 278.833 110.117 284.338 141.934 284.338Z" stroke="#190F3E" stroke-width="1.325" stroke-miterlimit="10"/>
<path d="M141.935 247.424C173.753 247.424 199.546 241.919 199.546 235.128C199.546 228.337 173.753 222.832 141.935 222.832C110.118 222.832 84.3242 228.337 84.3242 235.128C84.3242 241.919 110.118 247.424 141.935 247.424Z" stroke="#190F3E" stroke-width="1.325" stroke-miterlimit="10"/>
<path d="M141.934 259.721C173.752 259.721 199.545 254.216 199.545 247.425C199.545 240.634 173.752 235.129 141.934 235.129C110.117 235.129 84.3232 240.634 84.3232 247.425C84.3232 254.216 110.117 259.721 141.934 259.721Z" stroke="#190F3E" stroke-width="1.325" stroke-miterlimit="10"/>
<path d="M141.934 296.635C173.752 296.635 199.545 291.13 199.545 284.339C199.545 277.548 173.752 272.043 141.934 272.043C110.117 272.043 84.3232 277.548 84.3232 284.339C84.3232 291.13 110.117 296.635 141.934 296.635Z" stroke="#190F3E" stroke-width="1.325" stroke-miterlimit="10"/>
<path d="M141.934 308.957C173.752 308.957 199.545 303.452 199.545 296.661C199.545 289.87 173.752 284.365 141.934 284.365C110.117 284.365 84.3232 289.87 84.3232 296.661C84.3232 303.452 110.117 308.957 141.934 308.957Z" stroke="#190F3E" stroke-width="1.325" stroke-miterlimit="10"/>
<path d="M141.934 321.252C173.752 321.252 199.545 315.747 199.545 308.956C199.545 302.165 173.752 296.66 141.934 296.66C110.117 296.66 84.3232 302.165 84.3232 308.956C84.3232 315.747 110.117 321.252 141.934 321.252Z" stroke="#190F3E" stroke-width="1.325" stroke-miterlimit="10"/>
<path d="M141.934 333.576C173.752 333.576 199.545 328.071 199.545 321.28C199.545 314.489 173.752 308.984 141.934 308.984C110.117 308.984 84.3232 314.489 84.3232 321.28C84.3232 328.071 110.117 333.576 141.934 333.576Z" stroke="#190F3E" stroke-width="1.325" stroke-miterlimit="10"/>
<path d="M277.057 162.598L313.283 198.823" stroke="#190F3E" stroke-width="1.325" stroke-miterlimit="10"/>
<path d="M313.283 162.598L277.057 198.823" stroke="#190F3E" stroke-width="1.325" stroke-miterlimit="10"/>
<path d="M277.057 198.822C277.057 198.822 291.102 196.861 301.225 186.738C311.348 176.615 313.309 162.57 313.309 162.57" stroke="#190F3E" stroke-width="1.325" stroke-miterlimit="10"/>
<path d="M295.184 206.349C309.336 206.349 320.809 194.876 320.809 180.723C320.809 166.571 309.336 155.098 295.184 155.098C281.031 155.098 269.558 166.571 269.558 180.723C269.558 194.876 281.031 206.349 295.184 206.349Z" stroke="#190F3E" stroke-width="1.325" stroke-miterlimit="10"/>
<path d="M277.057 198.822C277.057 198.822 293.169 206.852 307.267 192.78C321.339 178.709 313.309 162.57 313.309 162.57" stroke="#190F3E" stroke-width="1.325" stroke-miterlimit="10"/>
<path d="M277.057 198.822C277.057 198.822 279.018 184.777 289.141 174.654C299.264 164.531 313.309 162.57 313.309 162.57" stroke="#190F3E" stroke-width="1.325" stroke-miterlimit="10"/>
<path d="M277.058 198.822C277.058 198.822 269.028 182.71 283.1 168.612C297.171 154.54 313.31 162.57 313.31 162.57" stroke="#190F3E" stroke-width="1.325" stroke-miterlimit="10"/>
<path d="M270.857 172.613C273.613 173.726 280.582 177.145 289.672 186.234C298.761 195.324 302.18 202.267 303.293 205.049" stroke="#190F3E" stroke-width="1.325" stroke-miterlimit="10"/>
<path d="M269.611 182.42C272.394 183.427 277.296 185.944 283.63 192.251C289.91 198.532 292.428 203.408 293.435 206.19" stroke="#190F3E" stroke-width="1.325" stroke-miterlimit="10"/>
<path d="M287.074 156.396C288.187 159.152 291.606 166.122 300.695 175.211C309.785 184.301 316.728 187.719 319.51 188.832" stroke="#190F3E" stroke-width="1.325" stroke-miterlimit="10"/>
<path d="M296.879 155.15C297.886 157.933 300.404 162.835 306.711 169.169C312.991 175.449 317.867 177.967 320.65 178.974" stroke="#190F3E" stroke-width="1.325" stroke-miterlimit="10"/>
<path d="M43.5396 58.9043H296.429V166.6C296.429 170.999 292.878 174.55 288.479 174.55H51.4896C47.0906 174.55 43.5396 170.999 43.5396 166.6V58.9043Z" fill="white" stroke="#190F3E" stroke-width="1.325" stroke-miterlimit="10"/>
<path d="M51.4896 28.5879H288.479C292.878 28.5879 296.429 32.1389 296.429 36.5379V58.9039H43.5396V36.5379C43.5396 32.1654 47.1171 28.5879 51.4896 28.5879Z" fill="white" stroke="#190F3E" stroke-width="1.325" stroke-miterlimit="10"/>
<path d="M61.7716 48.5422C64.4206 48.5422 66.5681 46.3948 66.5681 43.7457C66.5681 41.0967 64.4206 38.9492 61.7716 38.9492C59.1226 38.9492 56.9751 41.0967 56.9751 43.7457C56.9751 46.3948 59.1226 48.5422 61.7716 48.5422Z" fill="#190F3E"/>
<path d="M78.3072 48.5422C80.9563 48.5422 83.1037 46.3948 83.1037 43.7457C83.1037 41.0967 80.9563 38.9492 78.3072 38.9492C75.6582 38.9492 73.5107 41.0967 73.5107 43.7457C73.5107 46.3948 75.6582 48.5422 78.3072 48.5422Z" fill="#190F3E"/>
<path d="M94.8697 48.5422C97.5188 48.5422 99.6662 46.3948 99.6662 43.7457C99.6662 41.0967 97.5188 38.9492 94.8697 38.9492C92.2207 38.9492 90.0732 41.0967 90.0732 43.7457C90.0732 46.3948 92.2207 48.5422 94.8697 48.5422Z" fill="#190F3E"/>
<path d="M307.374 58.9043H486.461V205.926C486.461 210.325 482.91 213.876 478.511 213.876H315.324C310.925 213.876 307.374 210.325 307.374 205.926V58.9043Z" fill="white" stroke="#190F3E" stroke-width="1.325" stroke-miterlimit="10"/>
<path d="M315.324 28.5879H478.511C482.91 28.5879 486.461 32.1389 486.461 36.5379V58.9039H307.374V36.5379C307.374 32.1654 310.925 28.5879 315.324 28.5879Z" fill="white" stroke="#190F3E" stroke-width="1.325" stroke-miterlimit="10"/>
<path d="M325.579 48.5422C328.228 48.5422 330.375 46.3948 330.375 43.7457C330.375 41.0967 328.228 38.9492 325.579 38.9492C322.93 38.9492 320.782 41.0967 320.782 43.7457C320.782 46.3948 322.93 48.5422 325.579 48.5422Z" fill="#190F3E"/>
<path d="M342.141 48.5422C344.79 48.5422 346.938 46.3948 346.938 43.7457C346.938 41.0967 344.79 38.9492 342.141 38.9492C339.492 38.9492 337.345 41.0967 337.345 43.7457C337.345 46.3948 339.492 48.5422 342.141 48.5422Z" fill="#190F3E"/>
<path d="M358.677 48.5422C361.326 48.5422 363.474 46.3948 363.474 43.7457C363.474 41.0967 361.326 38.9492 358.677 38.9492C356.028 38.9492 353.881 41.0967 353.881 43.7457C353.881 46.3948 356.028 48.5422 358.677 48.5422Z" fill="#190F3E"/>
<path d="M307.374 255.057H486.461V351.437C486.461 355.836 482.91 359.387 478.511 359.387H315.324C310.925 359.387 307.374 355.836 307.374 351.437V255.057Z" fill="white" stroke="#190F3E" stroke-width="1.325" stroke-miterlimit="10"/>
<path d="M315.324 224.74H478.511C482.91 224.74 486.461 228.291 486.461 232.69V255.056H307.374V232.69C307.374 228.318 310.925 224.74 315.324 224.74Z" fill="white" stroke="#190F3E" stroke-width="1.325" stroke-miterlimit="10"/>
<path d="M325.579 244.695C328.228 244.695 330.375 242.547 330.375 239.898C330.375 237.249 328.228 235.102 325.579 235.102C322.93 235.102 320.782 237.249 320.782 239.898C320.782 242.547 322.93 244.695 325.579 244.695Z" fill="#190F3E"/>
<path d="M342.141 244.695C344.79 244.695 346.938 242.547 346.938 239.898C346.938 237.249 344.79 235.102 342.141 235.102C339.492 235.102 337.345 237.249 337.345 239.898C337.345 242.547 339.492 244.695 342.141 244.695Z" fill="#190F3E"/>
<path d="M358.677 244.695C361.326 244.695 363.474 242.547 363.474 239.898C363.474 237.249 361.326 235.102 358.677 235.102C356.028 235.102 353.881 237.249 353.881 239.898C353.881 242.547 356.028 244.695 358.677 244.695Z" fill="#190F3E"/>
<path d="M175.457 215.783H296.456V351.463C296.456 355.862 292.905 359.413 288.506 359.413H183.407C179.008 359.413 175.457 355.862 175.457 351.463V215.783Z" fill="white" stroke="#190F3E" stroke-width="1.325" stroke-miterlimit="10"/>
<path d="M183.408 185.467H288.507C292.906 185.467 296.457 189.018 296.457 193.417V215.783H175.458V193.417C175.458 189.044 179.009 185.467 183.408 185.467Z" fill="white" stroke="#190F3E" stroke-width="1.325" stroke-miterlimit="10"/>
<path d="M193.689 205.421C196.338 205.421 198.485 203.274 198.485 200.625C198.485 197.976 196.338 195.828 193.689 195.828C191.04 195.828 188.892 197.976 188.892 200.625C188.892 203.274 191.04 205.421 193.689 205.421Z" fill="#190F3E"/>
<path d="M210.224 205.421C212.873 205.421 215.021 203.274 215.021 200.625C215.021 197.976 212.873 195.828 210.224 195.828C207.575 195.828 205.428 197.976 205.428 200.625C205.428 203.274 207.575 205.421 210.224 205.421Z" fill="#190F3E"/>
<path d="M226.76 205.421C229.409 205.421 231.557 203.274 231.557 200.625C231.557 197.976 229.409 195.828 226.76 195.828C224.111 195.828 221.964 197.976 221.964 200.625C221.964 203.274 224.111 205.421 226.76 205.421Z" fill="#190F3E"/>
<path d="M43.5396 215.783H164.539V351.463C164.539 355.862 160.988 359.413 156.589 359.413H51.4896C47.0906 359.413 43.5396 355.862 43.5396 351.463V215.783Z" fill="white" stroke="#190F3E" stroke-width="1.325" stroke-miterlimit="10"/>
<path d="M51.4896 185.467H156.589C160.988 185.467 164.539 189.018 164.539 193.417V215.783H43.5396V193.417C43.5396 189.044 47.1171 185.467 51.4896 185.467Z" fill="white" stroke="#190F3E" stroke-width="1.325" stroke-miterlimit="10"/>
<path d="M61.7716 205.421C64.4206 205.421 66.5681 203.274 66.5681 200.625C66.5681 197.976 64.4206 195.828 61.7716 195.828C59.1226 195.828 56.9751 197.976 56.9751 200.625C56.9751 203.274 59.1226 205.421 61.7716 205.421Z" fill="#190F3E"/>
<path d="M78.3072 205.421C80.9563 205.421 83.1037 203.274 83.1037 200.625C83.1037 197.976 80.9563 195.828 78.3072 195.828C75.6582 195.828 73.5107 197.976 73.5107 200.625C73.5107 203.274 75.6582 205.421 78.3072 205.421Z" fill="#190F3E"/>
<path d="M94.8697 205.421C97.5188 205.421 99.6662 203.274 99.6662 200.625C99.6662 197.976 97.5188 195.828 94.8697 195.828C92.2207 195.828 90.0732 197.976 90.0732 200.625C90.0732 203.274 92.2207 205.421 94.8697 205.421Z" fill="#190F3E"/>
<path d="M278.727 83.8672H61.2412V88.4782H278.727V83.8672Z" fill="white" stroke="#190F3E" stroke-width="1.325" stroke-miterlimit="10"/>
<path d="M267.067 88.4766H61.2412V93.0876H267.067V88.4766Z" fill="#20C9AC"/>
<path d="M257.792 102.707H61.2412V107.318H257.792V102.707Z" fill="white" stroke="#190F3E" stroke-width="1.325" stroke-miterlimit="10"/>
<path d="M241.547 107.318H61.2412V111.929H241.547V107.318Z" fill="#20C9AC"/>
<path d="M237.625 121.549H61.2412V126.16H237.625V121.549Z" fill="white" stroke="#190F3E" stroke-width="1.325" stroke-miterlimit="10"/>
<path d="M203.281 126.16H61.2412V130.771H203.281V126.16Z" fill="#20C9AC"/>
<path d="M250.292 140.391H61.2412V145.002H250.292V140.391Z" fill="white" stroke="#190F3E" stroke-width="1.325" stroke-miterlimit="10"/>
<path d="M245.84 145.002H61.2412V149.613H245.84V145.002Z" fill="#20C9AC"/>
<path d="M61.2422 74.6445V158.809" stroke="#190F3E" stroke-width="1.325" stroke-miterlimit="10"/>
<path d="M469.235 342.189H324.598" stroke="#190F3E" stroke-width="1.325" stroke-miterlimit="10"/>
<path d="M469.236 272.043H324.599" stroke="#190F3E" stroke-width="0.53" stroke-miterlimit="10" stroke-linecap="round" stroke-linejoin="round"/>
<path d="M469.235 295.416H324.598" stroke="#190F3E" stroke-width="0.53" stroke-miterlimit="10" stroke-linecap="round" stroke-linejoin="round"/>
<path d="M469.235 318.789H324.598" stroke="#190F3E" stroke-width="0.53" stroke-miterlimit="10" stroke-linecap="round" stroke-linejoin="round"/>
<path d="M325.473 304.294C330.27 295.549 336.02 283.862 355.259 283.862C386.052 283.862 382.289 329.601 411.492 329.601C438.257 329.601 437.886 277.582 469.236 268.916" stroke="#FA699D" stroke-width="1.325" stroke-miterlimit="10" stroke-linecap="round" stroke-linejoin="round"/>
<path d="M325.579 318.233C355.736 318.233 349.482 268.916 376.061 268.916C402.323 268.916 395.062 301.458 424.106 301.458C439.9 301.458 456.966 289.825 469.235 279.225" stroke="#00A5FF" stroke-width="1.325" stroke-miterlimit="10" stroke-linecap="round" stroke-linejoin="round"/>
<path d="M391.353 138.828L418.966 179.585" stroke="#190F3E" stroke-width="1.325" stroke-miterlimit="10" stroke-linecap="round" stroke-linejoin="round"/>
<path d="M440.457 135.25L391.379 138.827L431.156 109.863L430.944 109.571C418.462 92.6908 396.043 85.1118 375.188 92.3728C349.509 101.303 335.968 129.367 344.898 155.019C353.829 180.671 381.892 194.239 407.544 185.308C429.036 177.835 442.047 156.927 440.457 135.25Z" stroke="#190F3E" stroke-width="1.325" stroke-miterlimit="10" stroke-linecap="round" stroke-linejoin="round"/>
<path d="M394.983 89.75L391.353 138.828" stroke="#190F3E" stroke-width="1.325" stroke-miterlimit="10" stroke-linecap="round" stroke-linejoin="round"/>
<path d="M454.316 101.408L414.593 130.32L463.671 126.742C463.353 122.555 462.505 118.315 461.047 114.155C459.404 109.464 457.152 105.171 454.369 101.355L454.316 101.408Z" fill="#5546FF" stroke="#190F3E" stroke-width="1.325" stroke-miterlimit="10" stroke-linecap="round" stroke-linejoin="round"/>
<path d="M353.484 107.398C342.857 120.224 338.988 138.138 344.871 155.019L391.352 138.854L353.484 107.398Z" fill="#5546FF" stroke="#190F3E" stroke-width="1.325" stroke-miterlimit="10" stroke-linecap="round" stroke-linejoin="round"/>
<path d="M203.467 293.561H196.551V342.162H203.467V293.561Z" fill="#5546FF"/>
<path d="M213.75 268.916H206.833V342.189H213.75V268.916Z" fill="#5546FF"/>
<path d="M224.005 239.898H217.088V342.162H224.005V239.898Z" fill="#5546FF"/>
<path d="M234.287 256.727H227.37V342.189H234.287V256.727Z" fill="#FF7042"/>
<path d="M244.542 275.568H237.626V342.189H244.542V275.568Z" fill="#FF7042"/>
<path d="M254.824 260.064H247.908V342.188H254.824V260.064Z" fill="#FF7042"/>
<path d="M265.08 245.33H258.163V342.188H265.08V245.33Z" fill="#5546FF"/>
<path d="M275.362 263.615H268.445V342.188H275.362V263.615Z" fill="#FF7042"/>
<path d="M279.231 342.188H192.682" stroke="#190F3E" stroke-width="1.325" stroke-miterlimit="10"/>
<path d="M63.5202 272.783H60.7642V295.891H63.5202V272.783Z" fill="#FA699D" stroke="#190F3E" stroke-width="1.325" stroke-miterlimit="10"/>
<path d="M63.5211 249.676H60.7651V272.784H63.5211V249.676Z" fill="white" stroke="#190F3E" stroke-width="1.325" stroke-miterlimit="10"/>
<path d="M69.5089 284.496H66.7529V307.604H69.5089V284.496Z" fill="#FA699D" stroke="#190F3E" stroke-width="1.325" stroke-miterlimit="10"/>
<path d="M69.5094 261.389H66.7534V284.497H69.5094V261.389Z" fill="white" stroke="#190F3E" stroke-width="1.325" stroke-miterlimit="10"/>
<path d="M75.4987 295.229H72.7427V318.337H75.4987V295.229Z" fill="#FA699D" stroke="#190F3E" stroke-width="1.325" stroke-miterlimit="10"/>
<path d="M75.4987 272.121H72.7427V295.229H75.4987V272.121Z" fill="white" stroke="#190F3E" stroke-width="1.325" stroke-miterlimit="10"/>
<path d="M81.4874 279.99H78.7314V303.098H81.4874V279.99Z" fill="#FA699D" stroke="#190F3E" stroke-width="1.325" stroke-miterlimit="10"/>
<path d="M81.4884 256.883H78.7324V279.991H81.4884V256.883Z" fill="white" stroke="#190F3E" stroke-width="1.325" stroke-miterlimit="10"/>
<path d="M87.4762 293.877H84.7202V316.985H87.4762V293.877Z" fill="#FA699D" stroke="#190F3E" stroke-width="1.325" stroke-miterlimit="10"/>
<path d="M87.4762 270.77H84.7202V293.878H87.4762V270.77Z" fill="white" stroke="#190F3E" stroke-width="1.325" stroke-miterlimit="10"/>
<path d="M93.4386 302.834H90.6826V325.942H93.4386V302.834Z" fill="#FA699D" stroke="#190F3E" stroke-width="1.325" stroke-miterlimit="10"/>
<path d="M93.4386 279.727H90.6826V302.835H93.4386V279.727Z" fill="white" stroke="#190F3E" stroke-width="1.325" stroke-miterlimit="10"/>
<path d="M99.4279 311.473H96.6719V334.581H99.4279V311.473Z" fill="#FA699D" stroke="#190F3E" stroke-width="1.325" stroke-miterlimit="10"/>
<path d="M99.4284 288.365H96.6724V311.473H99.4284V288.365Z" fill="white" stroke="#190F3E" stroke-width="1.325" stroke-miterlimit="10"/>
<path d="M105.417 316.482H102.661V339.59H105.417V316.482Z" fill="#FA699D" stroke="#190F3E" stroke-width="1.325" stroke-miterlimit="10"/>
<path d="M105.417 293.348H102.661V316.456H105.417V293.348Z" fill="white" stroke="#190F3E" stroke-width="1.325" stroke-miterlimit="10"/>
<path d="M111.406 304.344H108.65V327.452H111.406V304.344Z" fill="#FA699D" stroke="#190F3E" stroke-width="1.325" stroke-miterlimit="10"/>
<path d="M111.406 281.236H108.65V304.344H111.406V281.236Z" fill="white" stroke="#190F3E" stroke-width="1.325" stroke-miterlimit="10"/>
<path d="M117.395 310.016H114.639V333.124H117.395V310.016Z" fill="#FA699D" stroke="#190F3E" stroke-width="1.325" stroke-miterlimit="10"/>
<path d="M117.395 286.881H114.639V309.989H117.395V286.881Z" fill="white" stroke="#190F3E" stroke-width="1.325" stroke-miterlimit="10"/>
<path d="M123.384 293.348H120.628V316.456H123.384V293.348Z" fill="#FA699D" stroke="#190F3E" stroke-width="1.325" stroke-miterlimit="10"/>
<path d="M123.384 270.24H120.628V293.348H123.384V270.24Z" fill="white" stroke="#190F3E" stroke-width="1.325" stroke-miterlimit="10"/>
<path d="M129.346 285H126.59V308.108H129.346V285Z" fill="#FA699D" stroke="#190F3E" stroke-width="1.325" stroke-miterlimit="10"/>
<path d="M129.347 261.893H126.591V285.001H129.347V261.893Z" fill="white" stroke="#190F3E" stroke-width="1.325" stroke-miterlimit="10"/>
<path d="M135.335 279.619H132.579V302.727H135.335V279.619Z" fill="#FA699D" stroke="#190F3E" stroke-width="1.325" stroke-miterlimit="10"/>
<path d="M135.336 256.512H132.58V279.62H135.336V256.512Z" fill="white" stroke="#190F3E" stroke-width="1.325" stroke-miterlimit="10"/>
<path d="M141.324 286.881H138.568V309.989H141.324V286.881Z" fill="#FA699D" stroke="#190F3E" stroke-width="1.325" stroke-miterlimit="10"/>
<path d="M141.325 263.773H138.569V286.881H141.325V263.773Z" fill="white" stroke="#190F3E" stroke-width="1.325" stroke-miterlimit="10"/>
<path d="M147.314 265.602H144.558V288.71H147.314V265.602Z" fill="#FA699D" stroke="#190F3E" stroke-width="1.325" stroke-miterlimit="10"/>
<path d="M147.314 242.494H144.558V265.602H147.314V242.494Z" fill="white" stroke="#190F3E" stroke-width="1.325" stroke-miterlimit="10"/>
</g>
<defs>
<clipPath id="clip0_1865_19788">
<rect width="530" height="459" fill="white"/>
</clipPath>
</defs>
</svg>
