<svg width="38" height="38" viewBox="0 0 38 38" fill="none" xmlns="http://www.w3.org/2000/svg">
<rect width="38" height="38" rx="6" fill="#5546FF"/>
<path d="M19 9C16.243 9 14 11.243 14 14V17H13C12.4696 17 11.9609 17.2107 11.5858 17.5858C11.2107 17.9609 11 18.4696 11 19V27C11 27.5304 11.2107 28.0391 11.5858 28.4142C11.9609 28.7893 12.4696 29 13 29H25C25.5304 29 26.0391 28.7893 26.4142 28.4142C26.7893 28.0391 27 27.5304 27 27V19C27 18.4696 26.7893 17.9609 26.4142 17.5858C26.0391 17.2107 25.5304 17 25 17H24V14C24 11.243 21.757 9 19 9ZM16 14C16 12.346 17.346 11 19 11C20.654 11 22 12.346 22 14V17H16V14ZM20 24.723V27H18V24.723C17.6504 24.5228 17.3697 24.2213 17.1948 23.8584C17.02 23.4954 16.9593 23.0879 17.0207 22.6898C17.0821 22.2916 17.2627 21.9214 17.5388 21.6279C17.8148 21.3345 18.1733 21.1316 18.567 21.046C18.8594 20.9813 19.1626 20.9832 19.4542 21.0513C19.7459 21.1194 20.0185 21.2521 20.252 21.4397C20.4855 21.6272 20.6739 21.8647 20.8034 22.1348C20.9328 22.4049 21 22.7005 21 23C20.9994 23.3497 20.9067 23.6932 20.7311 23.9956C20.5556 24.2981 20.3034 24.549 20 24.723V24.723Z" fill="white"/>
</svg>
