<svg width="48" height="48" viewBox="0 0 48 48" fill="none" xmlns="http://www.w3.org/2000/svg">
<circle cx="24" cy="24" r="23" stroke="#EBEAED" stroke-width="2"/>
<path d="M25.0886 22.2309H22.1844Z" fill="#1F222C"/>
<path d="M29.5659 15.2729L25.0886 22.2309M25.0886 22.2309H32.9541M25.0886 22.2309H22.1844" stroke="#1F222C" stroke-width="2" stroke-linejoin="bevel"/>
<path d="M22.0471 22.2309H24.9513Z" fill="#1F222C"/>
<path d="M17.5698 15.2729L22.0471 22.2309M22.0471 22.2309H14.1816M22.0471 22.2309H24.9513" stroke="#1F222C" stroke-width="2" stroke-linejoin="bevel"/>
<path d="M29.3388 32.5985L24.8616 25.6406L29.3388 32.5985ZM24.8616 25.6406H32.7271H24.8616ZM24.8616 25.6406H21.9574Z" fill="#1F222C"/>
<path d="M24.8616 25.6406H21.9574M29.3388 32.5985L24.8616 25.6406L29.3388 32.5985ZM24.8616 25.6406H32.7271H24.8616Z" stroke="#1F222C" stroke-width="2" stroke-linejoin="bevel"/>
<path d="M17.5698 32.5985L22.0471 25.6406L17.5698 32.5985ZM22.0471 25.6406H14.1816H22.0471ZM22.0471 25.6406H24.9513Z" fill="#1F222C"/>
<path d="M22.0471 25.6406H24.9513M17.5698 32.5985L22.0471 25.6406L17.5698 32.5985ZM22.0471 25.6406H14.1816H22.0471Z" stroke="#1F222C" stroke-width="2" stroke-linejoin="bevel"/>
</svg>
