<svg width="48" height="48" viewBox="0 0 48 48" fill="none" xmlns="http://www.w3.org/2000/svg">
<circle cx="24" cy="24" r="23" fill="#2B2E38" stroke="#2B2E38" stroke-width="2"/>
<path d="M25.0886 22.2309H22.1844Z" fill="#84818A"/>
<path d="M29.5659 15.2729L25.0886 22.2309M25.0886 22.2309H32.9541M25.0886 22.2309H22.1844" stroke="#84818A" stroke-width="1.5" stroke-linejoin="bevel"/>
<path d="M22.0471 22.2309H24.9513Z" fill="#84818A"/>
<path d="M17.5698 15.2729L22.0471 22.2309M22.0471 22.2309H14.1816M22.0471 22.2309H24.9513" stroke="#84818A" stroke-width="1.5" stroke-linejoin="bevel"/>
<path d="M29.3393 32.5985L24.8621 25.6406L29.3393 32.5985ZM24.8621 25.6406H32.7275H24.8621ZM24.8621 25.6406H21.9579Z" fill="#84818A"/>
<path d="M24.8621 25.6406H21.9579M29.3393 32.5985L24.8621 25.6406L29.3393 32.5985ZM24.8621 25.6406H32.7275H24.8621Z" stroke="#84818A" stroke-width="1.5" stroke-linejoin="bevel"/>
<path d="M17.5698 32.5985L22.0471 25.6406L17.5698 32.5985ZM22.0471 25.6406H14.1816H22.0471ZM22.0471 25.6406H24.9513Z" fill="#84818A"/>
<path d="M22.0471 25.6406H24.9513M17.5698 32.5985L22.0471 25.6406L17.5698 32.5985ZM22.0471 25.6406H14.1816H22.0471Z" stroke="#84818A" stroke-width="1.5" stroke-linejoin="bevel"/>
</svg>
