<svg width="48" height="48" viewBox="0 0 48 48" fill="none" xmlns="http://www.w3.org/2000/svg">
<circle cx="24" cy="24" r="23" fill="white" stroke="#EBEAED" stroke-width="2"/>
<circle cx="39" cy="39" r="7" fill="#20C9AC"/>
<path d="M40.8557 37.1063C40.9437 37.0225 41.0609 36.9761 41.1824 36.9771C41.304 36.978 41.4204 37.0261 41.5072 37.1112C41.594 37.1964 41.6443 37.3119 41.6475 37.4334C41.6507 37.5549 41.6066 37.6729 41.5244 37.7626L39.0307 40.8813C38.9878 40.9275 38.936 40.9646 38.8785 40.9903C38.821 41.016 38.7588 41.0299 38.6958 41.031C38.6328 41.0322 38.5702 41.0207 38.5118 40.9971C38.4533 40.9735 38.4002 40.9384 38.3557 40.8938L36.7019 39.2401C36.6559 39.1971 36.6189 39.1454 36.5933 39.0879C36.5677 39.0304 36.5539 38.9683 36.5528 38.9054C36.5517 38.8424 36.5633 38.7799 36.5869 38.7216C36.6104 38.6632 36.6455 38.6102 36.69 38.5657C36.7345 38.5211 36.7876 38.4861 36.8459 38.4625C36.9043 38.4389 36.9668 38.4273 37.0298 38.4284C37.0927 38.4295 37.1548 38.4433 37.2123 38.4689C37.2698 38.4946 37.3215 38.5315 37.3644 38.5776L38.6732 39.8857L40.8438 37.1201C40.8477 37.1152 40.8519 37.1107 40.8563 37.1063H40.8557Z" fill="white"/>
<path d="M28 18L30.29 20.29L25.41 25.17L21.41 21.17L14 28.59L15.41 30L21.41 24L25.41 28L31.71 21.71L34 24V18H28Z" fill="#84818A"/>
</svg>
